<?xml version="1.0"?>
<svg xmlns="http://www.w3.org/2000/svg" xmlns:xlink="http://www.w3.org/1999/xlink" width="275" height="265"
	 viewBox="0 0 275 265" enable-background="new 0 0 275 265" xml:space="preserve">
<g>
	<g>
		<path fill="#005596" d="M240.5,193.7V181h-2v-3h5.7v15.7H240.5z M242.4,171.9c0.6,0,1.1,0.2,1.5,0.6c0.4,0.4,0.6,0.9,0.6,1.5
			c0,0.6-0.2,1.1-0.6,1.5c-0.4,0.4-0.9,0.6-1.5,0.6c-0.6,0-1.1-0.2-1.5-0.6c-0.4-0.4-0.6-0.9-0.6-1.5c0-0.6,0.2-1.1,0.6-1.5
			C241.3,172.2,241.8,171.9,242.4,171.9"/>
		<path fill="#005596" d="M249,181h-1.8V178h1.8v-3.2l3.7-1.3v4.5h4.3v2.9h-4.3v6.9c0,1.1,0.2,1.9,0.5,2.4c0.4,0.5,1,0.7,1.8,0.7
			c0.9,0,1.7-0.2,2.5-0.7v3.4c-0.9,0.3-2.1,0.4-3.6,0.4c-1.6,0-2.8-0.4-3.6-1.3c-0.8-0.9-1.3-2.1-1.3-3.8V181z"/>
		<path fill="#005596" d="M268.1,196.3c-0.4,1-1.2,1.9-2.5,2.6c-1.3,0.7-2.8,1-4.5,1v-3.2c2.8,0,4.2-0.7,4.2-2.1
			c0-0.9-0.4-2.4-1.2-4.3l-4.9-12.2h3.8l4.3,10.9l3.9-10.9h3.8L268.1,196.3z"/>
		<path fill="#005596" d="M126.3,11.3c0-6.2,5-11.3,11.3-11.3c6.2,0,11.3,5,11.3,11.3c0,6.2-5,11.3-11.3,11.3
			C131.4,22.5,126.3,17.5,126.3,11.3"/>
	</g>
	<polygon fill="#E31837" points="132.8,39.9 132.8,33.4 108.6,18.6 108.6,30.3 	"/>
	<polygon fill="#E31837" points="142.4,39.7 142.4,33.4 166.3,18.7 166.3,30.3 	"/>
	<polygon fill="#FDB913" points="132.6,61.1 132.6,44.5 97.5,30.4 97.5,49 	"/>
	<polygon fill="#005596" points="142.5,61 142.5,44.4 177.5,30.6 177.5,49.1 	"/>
	<polygon fill="#005596" points="132.7,65.6 80.6,47.4 80.6,84.5 	"/>
	<polygon fill="#FDB913" points="142.6,65.6 193.9,47.4 193.9,84.5 	"/>
	<rect x="128.3" y="72.2" fill="#E31837" width="18.2" height="49.4"/>
	<polygon fill="#E31837" points="122.4,120.4 122.4,74.2 100.7,82.1 100.7,111.3 	"/>
	<polygon fill="#E31837" points="151.6,120.4 151.6,74.2 173.3,82.1 173.3,111.3 	"/>
	<g>
		<path fill="#005596" d="M200.9,22c10.2,12.2,16.7,30.2,16.7,49c0,44.9-36.1,80.4-80.2,80.4c-44.2,0-80.5-35.6-80.5-80.5
			c0-18.5,6-35,16.8-48.8c-4.9,8-6.7,11.6-9.6,22.2c-1.9,7.2-2.3,15.1-2.3,22.5c1.1,17.1,6.2,28.2,15.4,42
			c13.7,18.1,34.8,29.9,60.1,29.9c42,0,75-33,75.6-74.3C212.8,48.8,209,34.6,200.9,22"/>
		<path fill="#005596" d="M44.2,221.4c0,3.5,1.2,5.2,3.7,5.2c1.1,0,2-0.4,2.7-1.3c0.7-0.9,1-2.2,1-3.8c0-3.4-1.2-5.1-3.7-5.1
			c-1.1,0-2.1,0.5-2.7,1.3C44.5,218.5,44.2,219.8,44.2,221.4 M40.4,221.4c0-2.4,0.7-4.3,2.1-5.8c1.4-1.5,3.2-2.3,5.5-2.3
			c2.4,0,4.2,0.7,5.6,2.2c1.3,1.4,2,3.4,2,5.9c0,2.5-0.7,4.5-2,6c-1.3,1.5-3.2,2.2-5.5,2.2c-2.4,0-4.2-0.7-5.6-2.2
			C41,225.9,40.4,223.9,40.4,221.4"/>
		<path fill="#005596" d="M67.2,210.5c-0.8-0.3-1.4-0.4-1.8-0.4c-0.7,0-1.3,0.3-1.8,0.9c-0.5,0.6-0.7,1.3-0.7,2.2c0,0.1,0,0.3,0,0.4
			h3.3v3h-3.2v12.7h-3.7v-12.7h-2.3v-3h2.3c0.1-1.9,0.6-3.5,1.7-4.7c1.1-1.2,2.4-1.8,4.1-1.8c0.9,0,1.9,0.2,3.2,0.6L67.2,210.5z"/>
	</g>
	<polygon fill="#005596" points="87.5,211.2 87.5,229.3 83.7,229.3 83.7,211.2 76.9,211.2 76.9,207.8 94.7,207.8 94.7,211.2 	"/>
	<g>
		<path fill="#005596" d="M96.7,219.8h7.7c-0.3-2.3-1.5-3.4-3.8-3.4C98.5,216.4,97.2,217.5,96.7,219.8 M107.8,222.6H96.6
			c0.1,1.3,0.5,2.2,1.3,2.9c0.8,0.7,1.9,1,3.2,1c1.7,0,2.9-0.4,3.8-1.3l1.4,2.8c-1.3,1-3.2,1.6-5.8,1.6c-2.4,0-4.3-0.7-5.7-2.1
			c-1.4-1.4-2.1-3.4-2.1-5.9c0-2.5,0.8-4.5,2.3-6c1.5-1.5,3.4-2.3,5.5-2.3c2.3,0,4.1,0.7,5.5,2c1.4,1.4,2.1,3.1,2.1,5.2
			C108.1,221,108,221.7,107.8,222.6"/>
		<path fill="#005596" d="M123.4,214.8l-1.6,2.7c-0.9-0.8-2-1.2-3.5-1.2c-1.4,0-2.5,0.5-3.3,1.4c-0.8,0.9-1.2,2.2-1.2,3.8
			c0,3.3,1.6,4.9,4.7,4.9c1.4,0,2.6-0.4,3.6-1.4l1.3,2.9c-1.1,0.7-2,1.1-2.8,1.3c-0.8,0.2-1.7,0.3-2.8,0.3c-2.4,0-4.3-0.7-5.7-2.1
			c-1.4-1.4-2.1-3.4-2.1-5.9c0-2.5,0.8-4.5,2.3-6c1.5-1.5,3.6-2.3,6.3-2.3C120.4,213.3,122,213.8,123.4,214.8"/>
		<path fill="#005596" d="M136.6,229.3v-9.7c0-1-0.3-1.7-0.9-2.3c-0.6-0.6-1.4-0.9-2.4-0.9c-0.6,0-1.2,0.2-1.8,0.5
			c-0.6,0.3-1.1,0.7-1.3,1.1v11.3h-3.7v-21.6l3.7-0.9v7.7c0.9-0.9,2.3-1.3,3.9-1.3c2,0,3.5,0.5,4.6,1.6c1.1,1.1,1.6,2.6,1.6,4.7v9.7
			H136.6z"/>
		<path fill="#005596" d="M155.1,229.3v-9.1c0-1.3-0.3-2.3-0.8-2.9c-0.5-0.6-1.3-0.9-2.5-0.9c-0.5,0-1.1,0.2-1.7,0.5
			c-0.6,0.3-1.1,0.7-1.4,1.1v11.4H145v-15.7h2.6l0.7,1.5c1-1.2,2.5-1.8,4.4-1.8c1.9,0,3.3,0.6,4.4,1.7c1.1,1.1,1.6,2.7,1.6,4.7v9.6
			H155.1z"/>
		<path fill="#005596" d="M165.5,221.4c0,3.5,1.2,5.2,3.7,5.2c1.1,0,2-0.4,2.7-1.3c0.7-0.9,1-2.2,1-3.8c0-3.4-1.2-5.1-3.7-5.1
			c-1.1,0-2.1,0.5-2.7,1.3C165.9,218.5,165.5,219.8,165.5,221.4 M161.7,221.4c0-2.4,0.7-4.3,2.1-5.8c1.4-1.5,3.2-2.3,5.5-2.3
			c2.4,0,4.2,0.7,5.6,2.2c1.3,1.4,2,3.4,2,5.9c0,2.5-0.7,4.5-2,6c-1.3,1.5-3.2,2.2-5.5,2.2c-2.4,0-4.2-0.7-5.6-2.2
			C162.4,225.9,161.7,223.9,161.7,221.4"/>
		<path fill="#005596" d="M180.4,207.7l3.7-0.9v17.7c0,1.9,0.6,3.1,1.7,3.5c-0.6,1.1-1.5,1.6-2.9,1.6c-1.7,0-2.5-1.2-2.5-3.5V207.7z
			"/>
		<path fill="#005596" d="M191.4,221.4c0,3.5,1.2,5.2,3.7,5.2c1.1,0,2-0.4,2.7-1.3c0.7-0.9,1-2.2,1-3.8c0-3.4-1.2-5.1-3.7-5.1
			c-1.1,0-2.1,0.5-2.7,1.3C191.7,218.5,191.4,219.8,191.4,221.4 M187.6,221.4c0-2.4,0.7-4.3,2.1-5.8c1.4-1.5,3.2-2.3,5.5-2.3
			c2.4,0,4.2,0.7,5.6,2.2c1.3,1.4,2,3.4,2,5.9c0,2.5-0.7,4.5-2,6c-1.3,1.5-3.2,2.2-5.5,2.2c-2.4,0-4.2-0.7-5.6-2.2
			C188.2,225.9,187.6,223.9,187.6,221.4"/>
		<path fill="#005596" d="M208.9,219.1c0,0.9,0.3,1.7,0.8,2.2c0.5,0.6,1.2,0.8,2.1,0.8c0.9,0,1.5-0.3,2-0.8c0.5-0.5,0.7-1.3,0.7-2.3
			c0-0.8-0.3-1.5-0.8-2c-0.5-0.5-1.1-0.8-1.9-0.8c-0.8,0-1.5,0.3-2.1,0.8C209.1,217.6,208.9,218.3,208.9,219.1 M205.2,233.3l2.3-2.9
			c1.3,1.2,2.7,1.8,4.3,1.8c1.1,0,1.9-0.2,2.6-0.5c0.7-0.3,1-0.7,1-1.3c0-0.9-0.8-1.4-2.3-1.4c-0.4,0-1,0.1-1.8,0.1
			c-0.8,0.1-1.4,0.1-1.8,0.1c-2.5,0-3.8-0.9-3.8-2.7c0-0.5,0.2-1,0.6-1.5c0.4-0.5,0.9-0.9,1.5-1.1c-1.8-1.2-2.7-2.8-2.7-4.9
			c0-1.7,0.6-3.1,1.9-4.2c1.2-1.1,2.7-1.7,4.5-1.7c1.4,0,2.6,0.3,3.5,0.8l1.4-1.7l2.5,2.3l-1.7,1.3c0.6,0.9,0.9,2,0.9,3.3
			c0,1.8-0.5,3.2-1.6,4.3c-1.1,1.1-2.5,1.6-4.1,1.6c-0.3,0-0.6,0-1.1-0.1l-0.6-0.1c-0.1,0-0.3,0.1-0.8,0.3c-0.5,0.2-0.7,0.4-0.7,0.6
			c0,0.4,0.3,0.6,1,0.6c0.3,0,0.8-0.1,1.5-0.2c0.7-0.1,1.3-0.2,1.8-0.2c3.6,0,5.4,1.4,5.4,4.3c0,1.6-0.7,2.8-2.1,3.7
			c-1.4,0.9-3.1,1.4-5.2,1.4C209.3,235.5,207.1,234.8,205.2,233.3"/>
		<path fill="#005596" d="M228.4,231.8c-0.4,1-1.2,1.9-2.5,2.6c-1.3,0.7-2.8,1-4.5,1v-3.2c2.8,0,4.2-0.7,4.2-2.1
			c0-0.9-0.4-2.4-1.2-4.3l-4.9-12.2h3.8l4.3,10.9l3.9-10.9h3.8L228.4,231.8z"/>
	</g>
	<polygon fill="#005596" points="10.6,175.6 10.6,193.7 6.8,193.7 6.8,175.6 0,175.6 0,172.3 17.8,172.3 17.8,175.6 	"/>
	<g>
		<path fill="#005596" d="M15.9,192.7l1.3-2.9c1.1,0.9,2.3,1.3,3.7,1.3c1.4,0,2.1-0.5,2.1-1.5c0-0.6-0.2-1.1-0.6-1.5
			c-0.4-0.4-1.3-0.8-2.5-1.3c-2.7-1.1-4.1-2.7-4.1-4.7c0-1.4,0.5-2.4,1.6-3.2c1-0.8,2.4-1.1,4-1.1c1.6,0,3.2,0.4,4.6,1.1l-1.1,2.8
			c-0.8-0.7-1.9-1-3.3-1c-1.3,0-1.9,0.5-1.9,1.5c0,0.4,0.2,0.8,0.6,1.1c0.4,0.3,1.3,0.8,2.7,1.3c1.4,0.5,2.4,1.2,3,2
			c0.6,0.8,0.9,1.7,0.9,2.8c0,1.5-0.5,2.6-1.6,3.5c-1.1,0.8-2.5,1.2-4.4,1.2c-1,0-1.9-0.1-2.5-0.3C17.7,193.6,16.9,193.3,15.9,192.7
			"/>
		<path fill="#005596" d="M40.8,193.7v-9.7c0-1-0.3-1.7-0.9-2.3c-0.6-0.6-1.4-0.9-2.4-0.9c-0.6,0-1.2,0.2-1.8,0.5
			c-0.6,0.3-1.1,0.7-1.3,1.1v11.3h-3.7v-21.6l3.7-0.9v7.7c0.9-0.9,2.3-1.3,3.9-1.3c2,0,3.5,0.5,4.6,1.6c1.1,1.1,1.6,2.6,1.6,4.7v9.7
			H40.8z"/>
	</g>
	<polygon fill="#005596" points="63.9,194 62.5,194 58.2,184.4 53.9,194 52.6,194 46.6,178 50.5,178 53.7,187.4 57.5,178 58.8,178 
		62.8,187.5 66.2,178 69.8,178 	"/>
	<g>
		<path fill="#005596" d="M80.4,186.4c-0.6-0.1-1.1-0.2-1.4-0.2c-2.9,0-4.3,1-4.3,2.8c0,1.4,0.8,2.1,2.4,2.1c2.2,0,3.3-1.1,3.3-3.3
			V186.4z M80.7,192.2c-0.3,0.5-0.9,1-1.7,1.3c-0.8,0.3-1.7,0.5-2.6,0.5c-1.7,0-3-0.4-4-1.3c-1-0.8-1.5-2-1.5-3.6
			c0-1.8,0.7-3.2,2-4.3c1.4-1,3.3-1.5,5.8-1.5c0.4,0,0.9,0.1,1.5,0.2c0-1.8-1.2-2.8-3.5-2.8c-1.4,0-2.5,0.2-3.5,0.7l-0.8-2.8
			c1.3-0.6,2.8-0.9,4.5-0.9c2.4,0,4.2,0.5,5.3,1.6c1.1,1.1,1.7,3.1,1.7,6.2v3.4c0,2.1,0.4,3.4,1.3,3.9c-0.3,0.5-0.6,0.8-1,1
			c-0.4,0.1-0.8,0.2-1.3,0.2c-0.5,0-1-0.2-1.4-0.6C81.1,193.1,80.9,192.6,80.7,192.2"/>
		<path fill="#005596" d="M98.1,193.7v-9.1c0-1.3-0.3-2.3-0.8-2.9c-0.5-0.6-1.3-0.9-2.5-0.9c-0.5,0-1.1,0.1-1.7,0.5
			c-0.6,0.3-1.1,0.7-1.4,1.1v11.4H88V178h2.6l0.7,1.5c1-1.2,2.5-1.8,4.4-1.8c1.9,0,3.3,0.6,4.4,1.7c1.1,1.1,1.6,2.7,1.6,4.7v9.6
			H98.1z"/>
		<path fill="#005596" d="M109.4,184.3h7.7c-0.3-2.3-1.5-3.4-3.8-3.4C111.2,180.8,109.9,182,109.4,184.3 M120.5,187h-11.2
			c0.1,1.2,0.5,2.2,1.3,2.9c0.8,0.7,1.9,1,3.2,1c1.7,0,2.9-0.4,3.8-1.3l1.4,2.8c-1.3,1-3.2,1.6-5.8,1.6c-2.4,0-4.3-0.7-5.7-2.1
			c-1.4-1.4-2.1-3.4-2.1-5.9c0-2.5,0.8-4.5,2.3-6c1.5-1.5,3.4-2.3,5.5-2.3c2.3,0,4.1,0.7,5.5,2c1.4,1.4,2.1,3.1,2.1,5.2
			C120.8,185.4,120.7,186.1,120.5,187"/>
		<path fill="#005596" d="M133,172.3h3.8v14.6c0,1.2,0.4,2.1,1.1,2.8c0.7,0.7,1.7,1.1,2.9,1.1c1.4,0,2.4-0.4,3.2-1.1
			c0.8-0.7,1.2-1.7,1.2-2.9v-14.5h3.8V187c0,2.2-0.7,3.9-2.2,5.2c-1.5,1.2-3.5,1.9-5.9,1.9c-2.5,0-4.4-0.6-5.8-1.8
			c-1.3-1.2-2-3-2-5.3V172.3z"/>
		<path fill="#005596" d="M163.3,193.7v-9.1c0-1.3-0.3-2.3-0.8-2.9c-0.5-0.6-1.3-0.9-2.5-0.9c-0.5,0-1.1,0.1-1.7,0.5
			c-0.6,0.3-1.1,0.7-1.4,1.1v11.4h-3.7V178h2.6l0.7,1.5c1-1.2,2.5-1.8,4.4-1.8c1.9,0,3.3,0.6,4.4,1.7c1.1,1.1,1.6,2.7,1.6,4.7v9.6
			H163.3z"/>
		<path fill="#005596" d="M171.9,193.7V181h-2v-3h5.7v15.7H171.9z M173.8,171.9c0.6,0,1.1,0.2,1.5,0.6c0.4,0.4,0.6,0.9,0.6,1.5
			c0,0.6-0.2,1.1-0.6,1.5c-0.4,0.4-0.9,0.6-1.5,0.6c-0.6,0-1.1-0.2-1.5-0.6c-0.4-0.4-0.6-0.9-0.6-1.5c0-0.6,0.2-1.1,0.6-1.5
			C172.7,172.2,173.2,171.9,173.8,171.9"/>
	</g>
	<polygon fill="#005596" points="186.4,194 185,194 177.9,178 182,178 185.7,187.6 189.7,178 193.6,178 	"/>
	<g>
		<path fill="#005596" d="M199.4,184.3h7.7c-0.3-2.3-1.5-3.4-3.8-3.4C201.2,180.8,199.9,182,199.4,184.3 M210.5,187h-11.2
			c0.1,1.2,0.5,2.2,1.3,2.9c0.8,0.7,1.9,1,3.2,1c1.7,0,2.9-0.4,3.8-1.3l1.4,2.8c-1.3,1-3.2,1.6-5.8,1.6c-2.4,0-4.3-0.7-5.7-2.1
			c-1.4-1.4-2.1-3.4-2.1-5.9c0-2.5,0.8-4.5,2.3-6c1.5-1.5,3.4-2.3,5.5-2.3c2.3,0,4.1,0.7,5.5,2c1.4,1.4,2.1,3.1,2.1,5.2
			C210.8,185.4,210.7,186.1,210.5,187"/>
		<path fill="#005596" d="M222.8,181.5c-0.7-0.4-1.4-0.6-2.2-0.6c-0.9,0-1.6,0.4-2.3,1.2c-0.7,0.8-1,1.7-1,2.8v8.9h-3.7V178h3.7v1.4
			c1-1.2,2.4-1.7,4.1-1.7c1.2,0,2.2,0.2,2.9,0.6L222.8,181.5z"/>
		<path fill="#005596" d="M225.6,192.7l1.3-2.9c1.1,0.9,2.3,1.3,3.7,1.3c1.4,0,2.1-0.5,2.1-1.5c0-0.6-0.2-1.1-0.6-1.5
			c-0.4-0.4-1.3-0.8-2.5-1.3c-2.7-1.1-4.1-2.7-4.1-4.7c0-1.4,0.5-2.4,1.6-3.2c1-0.8,2.4-1.1,4-1.1c1.6,0,3.2,0.4,4.6,1.1l-1.1,2.8
			c-0.8-0.7-1.9-1-3.3-1c-1.3,0-1.9,0.5-1.9,1.5c0,0.4,0.2,0.8,0.6,1.1c0.4,0.3,1.3,0.8,2.7,1.3c1.4,0.5,2.4,1.2,3,2
			c0.6,0.8,0.9,1.7,0.9,2.8c0,1.5-0.5,2.6-1.6,3.5c-1.1,0.8-2.5,1.2-4.4,1.2c-1,0-1.9-0.1-2.5-0.3
			C227.4,193.6,226.6,193.3,225.6,192.7"/>
	</g>
	<polygon fill="#E31837" points="54.9,261.3 54.3,261.3 52.8,252.1 48.1,261.3 47.5,261.3 45.6,247.5 47.6,247.5 48.7,256.7 
		53.3,247.5 53.9,247.5 55.3,256.6 59.5,247.5 61.6,247.5 	"/>
	<g>
		<path fill="#E31837" d="M63.3,255.1c0.5,0.2,1,0.3,1.7,0.3c1,0,1.7-0.2,2.4-0.5c0.6-0.3,0.9-0.8,0.9-1.4c0-0.8-0.5-1.1-1.6-1.1
			C65,252.5,63.9,253.3,63.3,255.1 M62.9,256.4c-0.1,0.3-0.1,0.6-0.1,0.9c0,0.8,0.2,1.4,0.7,1.9c0.5,0.4,1.1,0.7,1.9,0.7
			c0.7,0,1.5-0.3,2.2-0.8l-0.2,1.8c-1,0.3-1.9,0.5-2.6,0.5c-2.6,0-3.8-1.4-3.8-4.3c0-1.7,0.5-3.1,1.6-4.3c1.1-1.2,2.4-1.7,4.1-1.7
			c1,0,1.8,0.2,2.3,0.6s0.9,1,0.9,1.8c0,1.1-0.5,1.9-1.4,2.6c-0.9,0.6-2,0.9-3.4,0.9C64.3,256.9,63.6,256.7,62.9,256.4"/>
		<path fill="#E31837" d="M79.1,255.1c0.5,0.2,1,0.3,1.7,0.3c1,0,1.7-0.2,2.4-0.5c0.6-0.3,0.9-0.8,0.9-1.4c0-0.8-0.5-1.1-1.6-1.1
			C80.9,252.5,79.8,253.3,79.1,255.1 M78.8,256.4c-0.1,0.3-0.1,0.6-0.1,0.9c0,0.8,0.2,1.4,0.7,1.9c0.5,0.4,1.1,0.7,1.9,0.7
			c0.7,0,1.5-0.3,2.2-0.8l-0.2,1.8c-1,0.3-1.9,0.5-2.6,0.5c-2.6,0-3.8-1.4-3.8-4.3c0-1.7,0.5-3.1,1.6-4.3c1.1-1.2,2.4-1.7,4.1-1.7
			c1,0,1.8,0.2,2.3,0.6s0.9,1,0.9,1.8c0,1.1-0.5,1.9-1.4,2.6c-0.9,0.6-2,0.9-3.4,0.9C80.2,256.9,79.4,256.7,78.8,256.4"/>
		<path fill="#E31837" d="M98.2,261.1l1.1-6.3c0-0.2,0.1-0.5,0.1-0.7c0-1.1-0.5-1.6-1.6-1.6c-0.4,0-0.8,0.1-1.2,0.4
			c-0.4,0.3-0.7,0.6-0.9,0.9l-1.3,7.3h-1.8l1.2-7c0-0.1,0-0.2,0-0.3c0-0.9-0.6-1.3-1.8-1.3c-0.4,0-0.7,0.1-1.2,0.4
			c-0.4,0.3-0.8,0.6-1,0.9l-1.3,7.3h-1.8l1.3-7.2c0-0.2,0.1-0.5,0.1-0.9c0-0.7-0.1-1.2-0.2-1.7l1.7-0.3c0.1,0.5,0.2,0.9,0.2,1.3
			c0.2-0.4,0.7-0.7,1.2-1c0.6-0.2,1.2-0.4,1.8-0.4c1.4,0,2.3,0.4,2.7,1.3c0.3-0.4,0.7-0.7,1.3-0.9c0.6-0.2,1.2-0.4,1.7-0.4
			c1.8,0,2.7,0.9,2.7,2.6c0,0.3,0,0.6-0.1,0.9l-1.2,6.6H98.2z"/>
		<path fill="#E31837" d="M104.5,259.1c0.1,0.2,0.3,0.4,0.7,0.5c0.3,0.1,0.7,0.2,1,0.2c1.3,0,2.3-0.4,3-1.3c0.7-0.9,1.1-2.1,1.1-3.6
			c0-0.8-0.2-1.4-0.6-1.8c-0.4-0.4-1-0.6-1.8-0.6c-0.4,0-0.8,0.1-1.2,0.4c-0.5,0.2-0.8,0.5-1,0.8L104.5,259.1z M104.3,260.6
			l-0.8,4.4h-1.8l1.9-10.9c0.1-0.5,0.1-0.9,0.1-1.4c0-0.5,0-0.9-0.1-1.4l1.8-0.3c0,0.1,0.1,0.5,0.2,1.3c0.3-0.4,0.7-0.7,1.2-0.9
			c0.5-0.2,1-0.4,1.5-0.4c1.2,0,2.2,0.3,2.8,0.9c0.6,0.6,0.9,1.5,0.9,2.8c0,1.9-0.5,3.4-1.6,4.7c-1,1.3-2.4,1.9-4.1,1.9
			c-0.4,0-0.8-0.1-1.3-0.2C104.7,261,104.4,260.8,104.3,260.6"/>
		<path fill="#E31837" d="M115,257.3c0,1.7,0.7,2.5,2.1,2.5c1,0,1.9-0.5,2.5-1.5c0.6-1,0.9-2.2,0.9-3.5c0-1.6-0.7-2.4-2.1-2.4
			c-0.7,0-1.3,0.3-1.9,0.8c-0.5,0.5-0.9,1.2-1.2,1.9C115.1,255.9,115,256.6,115,257.3 M113.1,257.4c0-1.8,0.5-3.3,1.6-4.6
			c1-1.3,2.4-1.9,3.9-1.9c1.2,0,2.1,0.3,2.8,1c0.6,0.7,1,1.6,1,2.8c0,1-0.2,1.9-0.6,3c-0.4,1-1,1.9-1.9,2.6c-0.9,0.7-1.9,1-3.1,1
			c-1.2,0-2.1-0.3-2.7-1C113.4,259.6,113.1,258.6,113.1,257.4"/>
		<path fill="#E31837" d="M132.2,261.3h-0.5l-1.8-6.5l-4,6.5h-0.5l-1.9-10.1h1.8l1.1,6.3l3.7-6.3h0.5l1.8,6.3l3.1-6.3h1.8
			C135.3,255.2,133.6,258.6,132.2,261.3"/>
		<path fill="#E31837" d="M139.9,255.1c0.5,0.2,1,0.3,1.7,0.3c1,0,1.8-0.2,2.4-0.5c0.6-0.3,0.9-0.8,0.9-1.4c0-0.8-0.5-1.1-1.6-1.1
			C141.6,252.5,140.5,253.3,139.9,255.1 M139.6,256.4c-0.1,0.3-0.1,0.6-0.1,0.9c0,0.8,0.2,1.4,0.7,1.9c0.5,0.4,1.1,0.7,1.9,0.7
			c0.7,0,1.5-0.3,2.2-0.8l-0.2,1.8c-1,0.3-1.9,0.5-2.6,0.5c-2.6,0-3.8-1.4-3.8-4.3c0-1.7,0.5-3.1,1.6-4.3c1.1-1.2,2.4-1.7,4.1-1.7
			c1,0,1.8,0.2,2.3,0.6c0.6,0.4,0.9,1,0.9,1.8c0,1.1-0.5,1.9-1.4,2.6c-0.9,0.6-2,0.9-3.4,0.9C140.9,256.9,140.2,256.7,139.6,256.4"
			/>
		<path fill="#E31837" d="M154.6,252.9c-0.4-0.3-0.8-0.4-1.3-0.4c-0.6,0-1.2,0.3-1.8,0.9c-0.6,0.6-0.9,1.3-1.1,2.1l-1,5.7h-1.8
			l1.8-9.9h1.8l-0.3,1.6c0.9-1.2,1.9-1.8,3.2-1.8c0.2,0,0.6,0,1,0.1L154.6,252.9z"/>
		<path fill="#E31837" d="M163.1,259.1c0.1,0.2,0.3,0.4,0.7,0.5c0.3,0.1,0.7,0.2,1,0.2c1.3,0,2.3-0.4,3-1.3s1-2.1,1-3.6
			c0-0.8-0.2-1.4-0.6-1.8c-0.4-0.4-1-0.6-1.8-0.6c-0.4,0-0.8,0.1-1.2,0.4c-0.5,0.2-0.8,0.5-1,0.8L163.1,259.1z M162.9,260.6
			l-0.8,4.4h-1.8l1.9-10.9c0.1-0.5,0.1-0.9,0.1-1.4c0-0.5,0-0.9-0.1-1.4l1.8-0.3c0,0.1,0.1,0.5,0.2,1.3c0.3-0.4,0.7-0.7,1.2-0.9
			c0.5-0.2,1-0.4,1.5-0.4c1.2,0,2.2,0.3,2.8,0.9c0.6,0.6,0.9,1.5,0.9,2.8c0,1.9-0.5,3.4-1.6,4.7c-1,1.3-2.4,1.9-4.1,1.9
			c-0.4,0-0.8-0.1-1.3-0.2C163.3,261,163,260.8,162.9,260.6"/>
		<path fill="#E31837" d="M174.2,255.1c0.5,0.2,1,0.3,1.7,0.3c1,0,1.8-0.2,2.4-0.5c0.6-0.3,0.9-0.8,0.9-1.4c0-0.8-0.5-1.1-1.6-1.1
			C176,252.5,174.9,253.3,174.2,255.1 M173.9,256.4c-0.1,0.3-0.1,0.6-0.1,0.9c0,0.8,0.2,1.4,0.7,1.9c0.5,0.4,1.1,0.7,1.9,0.7
			c0.7,0,1.5-0.3,2.2-0.8l-0.2,1.8c-1,0.3-1.9,0.5-2.6,0.5c-2.6,0-3.8-1.4-3.8-4.3c0-1.7,0.5-3.1,1.6-4.3c1.1-1.2,2.4-1.7,4.1-1.7
			c1,0,1.8,0.2,2.3,0.6s0.9,1,0.9,1.8c0,1.1-0.5,1.9-1.4,2.6c-0.9,0.6-2,0.9-3.4,0.9C175.3,256.9,174.5,256.7,173.9,256.4"/>
		<path fill="#E31837" d="M183.7,257.3c0,1.7,0.7,2.5,2.1,2.5c1,0,1.9-0.5,2.5-1.5c0.6-1,0.9-2.2,0.9-3.5c0-1.6-0.7-2.4-2.1-2.4
			c-0.7,0-1.3,0.3-1.9,0.8c-0.5,0.5-0.9,1.2-1.2,1.9C183.9,255.9,183.7,256.6,183.7,257.3 M181.9,257.4c0-1.8,0.5-3.3,1.6-4.6
			c1-1.3,2.4-1.9,4-1.9c1.2,0,2.1,0.3,2.8,1c0.6,0.7,1,1.6,1,2.8c0,1-0.2,1.9-0.6,3c-0.4,1-1,1.9-1.9,2.6s-1.9,1-3.1,1
			c-1.2,0-2.1-0.3-2.7-1C182.2,259.6,181.9,258.6,181.9,257.4"/>
		<path fill="#E31837" d="M194,259.1c0.1,0.2,0.3,0.4,0.7,0.5c0.3,0.1,0.7,0.2,1,0.2c1.3,0,2.3-0.4,3-1.3c0.7-0.9,1-2.1,1-3.6
			c0-0.8-0.2-1.4-0.6-1.8c-0.4-0.4-1-0.6-1.8-0.6c-0.4,0-0.8,0.1-1.2,0.4c-0.5,0.2-0.8,0.5-1,0.8L194,259.1z M193.8,260.6L193,265
			h-1.8l1.9-10.9c0.1-0.5,0.1-0.9,0.1-1.4c0-0.5,0-0.9-0.1-1.4l1.8-0.3c0,0.1,0.1,0.5,0.2,1.3c0.3-0.4,0.7-0.7,1.2-0.9
			c0.5-0.2,1-0.4,1.5-0.4c1.2,0,2.2,0.3,2.8,0.9c0.6,0.6,0.9,1.5,0.9,2.8c0,1.9-0.5,3.4-1.6,4.7c-1,1.3-2.4,1.9-4.1,1.9
			c-0.4,0-0.8-0.1-1.3-0.2C194.2,261,193.9,260.8,193.8,260.6"/>
		<path fill="#E31837" d="M206.5,260l-0.2,1.3c-2,0-3-0.7-3-2.2c0-0.4,0.2-1.4,0.5-3l1.8-9h1.8l-1.7,8.4c-0.4,1.8-0.5,2.9-0.5,3.3
			C205.1,259.6,205.6,260,206.5,260"/>
		<path fill="#E31837" d="M211.2,255.1c0.5,0.2,1,0.3,1.7,0.3c1,0,1.8-0.2,2.4-0.5c0.6-0.3,0.9-0.8,0.9-1.4c0-0.8-0.5-1.1-1.6-1.1
			C213,252.5,211.8,253.3,211.2,255.1 M210.9,256.4c-0.1,0.3-0.1,0.6-0.1,0.9c0,0.8,0.2,1.4,0.7,1.9c0.5,0.4,1.1,0.7,1.9,0.7
			c0.7,0,1.5-0.3,2.2-0.8l-0.2,1.8c-1,0.3-1.9,0.5-2.6,0.5c-2.6,0-3.8-1.4-3.8-4.3c0-1.7,0.5-3.1,1.6-4.3c1.1-1.2,2.4-1.7,4.1-1.7
			c1,0,1.8,0.2,2.3,0.6c0.6,0.4,0.9,1,0.9,1.8c0,1.1-0.5,1.9-1.4,2.6c-0.9,0.6-2,0.9-3.4,0.9C212.3,256.9,211.5,256.7,210.9,256.4"
			/>
	</g>
	<g>
		<path fill="#005596" d="M240.5,193.7V181h-2v-3h5.7v15.7H240.5z M242.4,171.9c0.6,0,1.1,0.2,1.5,0.6c0.4,0.4,0.6,0.9,0.6,1.5
			c0,0.6-0.2,1.1-0.6,1.5c-0.4,0.4-0.9,0.6-1.5,0.6c-0.6,0-1.1-0.2-1.5-0.6c-0.4-0.4-0.6-0.9-0.6-1.5c0-0.6,0.2-1.1,0.6-1.5
			C241.3,172.2,241.8,171.9,242.4,171.9"/>
		<path fill="#005596" d="M249,181h-1.8V178h1.8v-3.2l3.7-1.3v4.5h4.3v2.9h-4.3v6.9c0,1.1,0.2,1.9,0.5,2.4c0.4,0.5,1,0.7,1.8,0.7
			c0.9,0,1.7-0.2,2.5-0.7v3.4c-0.9,0.3-2.1,0.4-3.6,0.4c-1.6,0-2.8-0.4-3.6-1.3c-0.8-0.9-1.3-2.1-1.3-3.8V181z"/>
		<path fill="#005596" d="M268.1,196.3c-0.4,1-1.2,1.9-2.5,2.6c-1.3,0.7-2.8,1-4.5,1v-3.2c2.8,0,4.2-0.7,4.2-2.1
			c0-0.9-0.4-2.4-1.2-4.3l-4.9-12.2h3.8l4.3,10.9l3.9-10.9h3.8L268.1,196.3z"/>
		<path fill="#005596" d="M126.3,11.3c0-6.2,5-11.3,11.3-11.3c6.2,0,11.3,5,11.3,11.3c0,6.2-5,11.3-11.3,11.3
			C131.4,22.5,126.3,17.5,126.3,11.3"/>
	</g>
	<polygon fill="#E31837" points="132.8,39.9 132.8,33.4 108.6,18.6 108.6,30.3 	"/>
	<polygon fill="#E31837" points="142.4,39.7 142.4,33.4 166.3,18.7 166.3,30.3 	"/>
	<polygon fill="#FDB913" points="132.6,61.1 132.6,44.5 97.5,30.4 97.5,49 	"/>
	<polygon fill="#005596" points="142.5,61 142.5,44.4 177.5,30.6 177.5,49.1 	"/>
	<polygon fill="#005596" points="132.7,65.6 80.6,47.4 80.6,84.5 	"/>
	<polygon fill="#FDB913" points="142.6,65.6 193.9,47.4 193.9,84.5 	"/>
	<rect x="128.3" y="72.2" fill="#E31837" width="18.2" height="49.4"/>
	<polygon fill="#E31837" points="122.4,120.4 122.4,74.2 100.7,82.1 100.7,111.3 	"/>
	<polygon fill="#E31837" points="151.6,120.4 151.6,74.2 173.3,82.1 173.3,111.3 	"/>
	<g>
		<path fill="#005596" d="M200.9,22c10.2,12.2,16.7,30.2,16.7,49c0,44.9-36.1,80.4-80.2,80.4c-44.2,0-80.5-35.6-80.5-80.5
			c0-18.5,6-35,16.8-48.8c-4.9,8-6.7,11.6-9.6,22.2c-1.9,7.2-2.3,15.1-2.3,22.5c1.1,17.1,6.2,28.2,15.4,42
			c13.7,18.1,34.8,29.9,60.1,29.9c42,0,75-33,75.6-74.3C212.8,48.8,209,34.6,200.9,22"/>
		<path fill="#005596" d="M44.2,221.4c0,3.5,1.2,5.2,3.7,5.2c1.1,0,2-0.4,2.7-1.3c0.7-0.9,1-2.2,1-3.8c0-3.4-1.2-5.1-3.7-5.1
			c-1.1,0-2.1,0.5-2.7,1.3C44.5,218.5,44.2,219.8,44.2,221.4 M40.4,221.4c0-2.4,0.7-4.3,2.1-5.8c1.4-1.5,3.2-2.3,5.5-2.3
			c2.4,0,4.2,0.7,5.6,2.2c1.3,1.4,2,3.4,2,5.9c0,2.5-0.7,4.5-2,6c-1.3,1.5-3.2,2.2-5.5,2.2c-2.4,0-4.2-0.7-5.6-2.2
			C41,225.9,40.4,223.9,40.4,221.4"/>
		<path fill="#005596" d="M67.2,210.5c-0.8-0.3-1.4-0.4-1.8-0.4c-0.7,0-1.3,0.3-1.8,0.9c-0.5,0.6-0.7,1.3-0.7,2.2c0,0.1,0,0.3,0,0.4
			h3.3v3h-3.2v12.7h-3.7v-12.7h-2.3v-3h2.3c0.1-1.9,0.6-3.5,1.7-4.7c1.1-1.2,2.4-1.8,4.1-1.8c0.9,0,1.9,0.2,3.2,0.6L67.2,210.5z"/>
	</g>
	<polygon fill="#005596" points="87.5,211.2 87.5,229.3 83.7,229.3 83.7,211.2 76.9,211.2 76.9,207.8 94.7,207.8 94.7,211.2 	"/>
	<g>
		<path fill="#005596" d="M96.7,219.8h7.7c-0.3-2.3-1.5-3.4-3.8-3.4C98.5,216.4,97.2,217.5,96.7,219.8 M107.8,222.6H96.6
			c0.1,1.3,0.5,2.2,1.3,2.9c0.8,0.7,1.9,1,3.2,1c1.7,0,2.9-0.4,3.8-1.3l1.4,2.8c-1.3,1-3.2,1.6-5.8,1.6c-2.4,0-4.3-0.7-5.7-2.1
			c-1.4-1.4-2.1-3.4-2.1-5.9c0-2.5,0.8-4.5,2.3-6c1.5-1.5,3.4-2.3,5.5-2.3c2.3,0,4.1,0.7,5.5,2c1.4,1.4,2.1,3.1,2.1,5.2
			C108.1,221,108,221.7,107.8,222.6"/>
		<path fill="#005596" d="M123.4,214.8l-1.6,2.7c-0.9-0.8-2-1.2-3.5-1.2c-1.4,0-2.5,0.5-3.3,1.4c-0.8,0.9-1.2,2.2-1.2,3.8
			c0,3.3,1.6,4.9,4.7,4.9c1.4,0,2.6-0.4,3.6-1.4l1.3,2.9c-1.1,0.7-2,1.1-2.8,1.3c-0.8,0.2-1.7,0.3-2.8,0.3c-2.4,0-4.3-0.7-5.7-2.1
			c-1.4-1.4-2.1-3.4-2.1-5.9c0-2.5,0.8-4.5,2.3-6c1.5-1.5,3.6-2.3,6.3-2.3C120.4,213.3,122,213.8,123.4,214.8"/>
		<path fill="#005596" d="M136.6,229.3v-9.7c0-1-0.3-1.7-0.9-2.3c-0.6-0.6-1.4-0.9-2.4-0.9c-0.6,0-1.2,0.2-1.8,0.5
			c-0.6,0.3-1.1,0.7-1.3,1.1v11.3h-3.7v-21.6l3.7-0.9v7.7c0.9-0.9,2.3-1.3,3.9-1.3c2,0,3.5,0.5,4.6,1.6c1.1,1.1,1.6,2.6,1.6,4.7v9.7
			H136.6z"/>
		<path fill="#005596" d="M155.1,229.3v-9.1c0-1.3-0.3-2.3-0.8-2.9c-0.5-0.6-1.3-0.9-2.5-0.9c-0.5,0-1.1,0.2-1.7,0.5
			c-0.6,0.3-1.1,0.7-1.4,1.1v11.4H145v-15.7h2.6l0.7,1.5c1-1.2,2.5-1.8,4.4-1.8c1.9,0,3.3,0.6,4.4,1.7c1.1,1.1,1.6,2.7,1.6,4.7v9.6
			H155.1z"/>
		<path fill="#005596" d="M165.5,221.4c0,3.5,1.2,5.2,3.7,5.2c1.1,0,2-0.4,2.7-1.3c0.7-0.9,1-2.2,1-3.8c0-3.4-1.2-5.1-3.7-5.1
			c-1.1,0-2.1,0.5-2.7,1.3C165.9,218.5,165.5,219.8,165.5,221.4 M161.7,221.4c0-2.4,0.7-4.3,2.1-5.8c1.4-1.5,3.2-2.3,5.5-2.3
			c2.4,0,4.2,0.7,5.6,2.2c1.3,1.4,2,3.4,2,5.9c0,2.5-0.7,4.5-2,6c-1.3,1.5-3.2,2.2-5.5,2.2c-2.4,0-4.2-0.7-5.6-2.2
			C162.4,225.9,161.7,223.9,161.7,221.4"/>
		<path fill="#005596" d="M180.4,207.7l3.7-0.9v17.7c0,1.9,0.6,3.1,1.7,3.5c-0.6,1.1-1.5,1.6-2.9,1.6c-1.7,0-2.5-1.2-2.5-3.5V207.7z
			"/>
		<path fill="#005596" d="M191.4,221.4c0,3.5,1.2,5.2,3.7,5.2c1.1,0,2-0.4,2.7-1.3c0.7-0.9,1-2.2,1-3.8c0-3.4-1.2-5.1-3.7-5.1
			c-1.1,0-2.1,0.5-2.7,1.3C191.7,218.5,191.4,219.8,191.4,221.4 M187.6,221.4c0-2.4,0.7-4.3,2.1-5.8c1.4-1.5,3.2-2.3,5.5-2.3
			c2.4,0,4.2,0.7,5.6,2.2c1.3,1.4,2,3.4,2,5.9c0,2.5-0.7,4.5-2,6c-1.3,1.5-3.2,2.2-5.5,2.2c-2.4,0-4.2-0.7-5.6-2.2
			C188.2,225.9,187.6,223.9,187.6,221.4"/>
		<path fill="#005596" d="M208.9,219.1c0,0.9,0.3,1.7,0.8,2.2c0.5,0.6,1.2,0.8,2.1,0.8c0.9,0,1.5-0.3,2-0.8c0.5-0.5,0.7-1.3,0.7-2.3
			c0-0.8-0.3-1.5-0.8-2c-0.5-0.5-1.1-0.8-1.9-0.8c-0.8,0-1.5,0.3-2.1,0.8C209.1,217.6,208.9,218.3,208.9,219.1 M205.2,233.3l2.3-2.9
			c1.3,1.2,2.7,1.8,4.3,1.8c1.1,0,1.9-0.2,2.6-0.5c0.7-0.3,1-0.7,1-1.3c0-0.9-0.8-1.4-2.3-1.4c-0.4,0-1,0.1-1.8,0.1
			c-0.8,0.1-1.4,0.1-1.8,0.1c-2.5,0-3.8-0.9-3.8-2.7c0-0.5,0.2-1,0.6-1.5c0.4-0.5,0.9-0.9,1.5-1.1c-1.8-1.2-2.7-2.8-2.7-4.9
			c0-1.7,0.6-3.1,1.9-4.2c1.2-1.1,2.7-1.7,4.5-1.7c1.4,0,2.6,0.3,3.5,0.8l1.4-1.7l2.5,2.3l-1.7,1.3c0.6,0.9,0.9,2,0.9,3.3
			c0,1.8-0.5,3.2-1.6,4.3c-1.1,1.1-2.5,1.6-4.1,1.6c-0.3,0-0.6,0-1.1-0.1l-0.6-0.1c-0.1,0-0.3,0.1-0.8,0.3c-0.5,0.2-0.7,0.4-0.7,0.6
			c0,0.4,0.3,0.6,1,0.6c0.3,0,0.8-0.1,1.5-0.2c0.7-0.1,1.3-0.2,1.8-0.2c3.6,0,5.4,1.4,5.4,4.3c0,1.6-0.7,2.8-2.1,3.7
			c-1.4,0.9-3.1,1.4-5.2,1.4C209.3,235.5,207.1,234.8,205.2,233.3"/>
		<path fill="#005596" d="M228.4,231.8c-0.4,1-1.2,1.9-2.5,2.6c-1.3,0.7-2.8,1-4.5,1v-3.2c2.8,0,4.2-0.7,4.2-2.1
			c0-0.9-0.4-2.4-1.2-4.3l-4.9-12.2h3.8l4.3,10.9l3.9-10.9h3.8L228.4,231.8z"/>
	</g>
	<polygon fill="#005596" points="10.6,175.6 10.6,193.7 6.8,193.7 6.8,175.6 0,175.6 0,172.3 17.8,172.3 17.8,175.6 	"/>
	<g>
		<path fill="#005596" d="M15.9,192.7l1.3-2.9c1.1,0.9,2.3,1.3,3.7,1.3c1.4,0,2.1-0.5,2.1-1.5c0-0.6-0.2-1.1-0.6-1.5
			c-0.4-0.4-1.3-0.8-2.5-1.3c-2.7-1.1-4.1-2.7-4.1-4.7c0-1.4,0.5-2.4,1.6-3.2c1-0.8,2.4-1.1,4-1.1c1.6,0,3.2,0.4,4.6,1.1l-1.1,2.8
			c-0.8-0.7-1.9-1-3.3-1c-1.3,0-1.9,0.5-1.9,1.5c0,0.4,0.2,0.8,0.6,1.1c0.4,0.3,1.3,0.8,2.7,1.3c1.4,0.5,2.4,1.2,3,2
			c0.6,0.8,0.9,1.7,0.9,2.8c0,1.5-0.5,2.6-1.6,3.5c-1.1,0.8-2.5,1.2-4.4,1.2c-1,0-1.9-0.1-2.5-0.3C17.7,193.6,16.9,193.3,15.9,192.7
			"/>
		<path fill="#005596" d="M40.8,193.7v-9.7c0-1-0.3-1.7-0.9-2.3c-0.6-0.6-1.4-0.9-2.4-0.9c-0.6,0-1.2,0.2-1.8,0.5
			c-0.6,0.3-1.1,0.7-1.3,1.1v11.3h-3.7v-21.6l3.7-0.9v7.7c0.9-0.9,2.3-1.3,3.9-1.3c2,0,3.5,0.5,4.6,1.6c1.1,1.1,1.6,2.6,1.6,4.7v9.7
			H40.8z"/>
	</g>
	<polygon fill="#005596" points="63.9,194 62.5,194 58.2,184.4 53.9,194 52.6,194 46.6,178 50.5,178 53.7,187.4 57.5,178 58.8,178 
		62.8,187.5 66.2,178 69.8,178 	"/>
	<g>
		<path fill="#005596" d="M80.4,186.4c-0.6-0.1-1.1-0.2-1.4-0.2c-2.9,0-4.3,1-4.3,2.8c0,1.4,0.8,2.1,2.4,2.1c2.2,0,3.3-1.1,3.3-3.3
			V186.4z M80.7,192.2c-0.3,0.5-0.9,1-1.7,1.3c-0.8,0.3-1.7,0.5-2.6,0.5c-1.7,0-3-0.4-4-1.3c-1-0.8-1.5-2-1.5-3.6
			c0-1.8,0.7-3.2,2-4.3c1.4-1,3.3-1.5,5.8-1.5c0.4,0,0.9,0.1,1.5,0.2c0-1.8-1.2-2.8-3.5-2.8c-1.4,0-2.5,0.2-3.5,0.7l-0.8-2.8
			c1.3-0.6,2.8-0.9,4.5-0.9c2.4,0,4.2,0.5,5.3,1.6c1.1,1.1,1.7,3.1,1.7,6.2v3.4c0,2.1,0.4,3.4,1.3,3.9c-0.3,0.5-0.6,0.8-1,1
			c-0.4,0.1-0.8,0.2-1.3,0.2c-0.5,0-1-0.2-1.4-0.6C81.1,193.1,80.9,192.6,80.7,192.2"/>
		<path fill="#005596" d="M98.1,193.7v-9.1c0-1.3-0.3-2.3-0.8-2.9c-0.5-0.6-1.3-0.9-2.5-0.9c-0.5,0-1.1,0.1-1.7,0.5
			c-0.6,0.3-1.1,0.7-1.4,1.1v11.4H88V178h2.6l0.7,1.5c1-1.2,2.5-1.8,4.4-1.8c1.9,0,3.3,0.6,4.4,1.7c1.1,1.1,1.6,2.7,1.6,4.7v9.6
			H98.1z"/>
		<path fill="#005596" d="M109.4,184.3h7.7c-0.3-2.3-1.5-3.4-3.8-3.4C111.2,180.8,109.9,182,109.4,184.3 M120.5,187h-11.2
			c0.1,1.2,0.5,2.2,1.3,2.9c0.8,0.7,1.9,1,3.2,1c1.7,0,2.9-0.4,3.8-1.3l1.4,2.8c-1.3,1-3.2,1.6-5.8,1.6c-2.4,0-4.3-0.7-5.7-2.1
			c-1.4-1.4-2.1-3.4-2.1-5.9c0-2.5,0.8-4.5,2.3-6c1.5-1.5,3.4-2.3,5.5-2.3c2.3,0,4.1,0.7,5.5,2c1.4,1.4,2.1,3.1,2.1,5.2
			C120.8,185.4,120.7,186.1,120.5,187"/>
		<path fill="#005596" d="M133,172.3h3.8v14.6c0,1.2,0.4,2.1,1.1,2.8c0.7,0.7,1.7,1.1,2.9,1.1c1.4,0,2.4-0.4,3.2-1.1
			c0.8-0.7,1.2-1.7,1.2-2.9v-14.5h3.8V187c0,2.2-0.7,3.9-2.2,5.2c-1.5,1.2-3.5,1.9-5.9,1.9c-2.5,0-4.4-0.6-5.8-1.8
			c-1.3-1.2-2-3-2-5.3V172.3z"/>
		<path fill="#005596" d="M163.3,193.7v-9.1c0-1.3-0.3-2.3-0.8-2.9c-0.5-0.6-1.3-0.9-2.5-0.9c-0.5,0-1.1,0.1-1.7,0.5
			c-0.6,0.3-1.1,0.7-1.4,1.1v11.4h-3.7V178h2.6l0.7,1.5c1-1.2,2.5-1.8,4.4-1.8c1.9,0,3.3,0.6,4.4,1.7c1.1,1.1,1.6,2.7,1.6,4.7v9.6
			H163.3z"/>
		<path fill="#005596" d="M171.9,193.7V181h-2v-3h5.7v15.7H171.9z M173.8,171.9c0.6,0,1.1,0.2,1.5,0.6c0.4,0.4,0.6,0.9,0.6,1.5
			c0,0.6-0.2,1.1-0.6,1.5c-0.4,0.4-0.9,0.6-1.5,0.6c-0.6,0-1.1-0.2-1.5-0.6c-0.4-0.4-0.6-0.9-0.6-1.5c0-0.6,0.2-1.1,0.6-1.5
			C172.7,172.2,173.2,171.9,173.8,171.9"/>
	</g>
	<polygon fill="#005596" points="186.4,194 185,194 177.9,178 182,178 185.7,187.6 189.7,178 193.6,178 	"/>
	<g>
		<path fill="#005596" d="M199.4,184.3h7.7c-0.3-2.3-1.5-3.4-3.8-3.4C201.2,180.8,199.9,182,199.4,184.3 M210.5,187h-11.2
			c0.1,1.2,0.5,2.2,1.3,2.9c0.8,0.7,1.9,1,3.2,1c1.7,0,2.9-0.4,3.8-1.3l1.4,2.8c-1.3,1-3.2,1.6-5.8,1.6c-2.4,0-4.3-0.7-5.7-2.1
			c-1.4-1.4-2.1-3.4-2.1-5.9c0-2.5,0.8-4.5,2.3-6c1.5-1.5,3.4-2.3,5.5-2.3c2.3,0,4.1,0.7,5.5,2c1.4,1.4,2.1,3.1,2.1,5.2
			C210.8,185.4,210.7,186.1,210.5,187"/>
		<path fill="#005596" d="M222.8,181.5c-0.7-0.4-1.4-0.6-2.2-0.6c-0.9,0-1.6,0.4-2.3,1.2c-0.7,0.8-1,1.7-1,2.8v8.9h-3.7V178h3.7v1.4
			c1-1.2,2.4-1.7,4.1-1.7c1.2,0,2.2,0.2,2.9,0.6L222.8,181.5z"/>
		<path fill="#005596" d="M225.6,192.7l1.3-2.9c1.1,0.9,2.3,1.3,3.7,1.3c1.4,0,2.1-0.5,2.1-1.5c0-0.6-0.2-1.1-0.6-1.5
			c-0.4-0.4-1.3-0.8-2.5-1.3c-2.7-1.1-4.1-2.7-4.1-4.7c0-1.4,0.5-2.4,1.6-3.2c1-0.8,2.4-1.1,4-1.1c1.6,0,3.2,0.4,4.6,1.1l-1.1,2.8
			c-0.8-0.7-1.9-1-3.3-1c-1.3,0-1.9,0.5-1.9,1.5c0,0.4,0.2,0.8,0.6,1.1c0.4,0.3,1.3,0.8,2.7,1.3c1.4,0.5,2.4,1.2,3,2
			c0.6,0.8,0.9,1.7,0.9,2.8c0,1.5-0.5,2.6-1.6,3.5c-1.1,0.8-2.5,1.2-4.4,1.2c-1,0-1.9-0.1-2.5-0.3
			C227.4,193.6,226.6,193.3,225.6,192.7"/>
	</g>
	<polygon fill="#E31837" points="54.9,261.3 54.3,261.3 52.8,252.1 48.1,261.3 47.5,261.3 45.6,247.5 47.6,247.5 48.7,256.7 
		53.3,247.5 53.9,247.5 55.3,256.6 59.5,247.5 61.6,247.5 	"/>
	<g>
		<path fill="#E31837" d="M63.3,255.1c0.5,0.2,1,0.3,1.7,0.3c1,0,1.7-0.2,2.4-0.5c0.6-0.3,0.9-0.8,0.9-1.4c0-0.8-0.5-1.1-1.6-1.1
			C65,252.5,63.9,253.3,63.3,255.1 M62.9,256.4c-0.1,0.3-0.1,0.6-0.1,0.9c0,0.8,0.2,1.4,0.7,1.9c0.5,0.4,1.1,0.7,1.9,0.7
			c0.7,0,1.5-0.3,2.2-0.8l-0.2,1.8c-1,0.3-1.9,0.5-2.6,0.5c-2.6,0-3.8-1.4-3.8-4.3c0-1.7,0.5-3.1,1.6-4.3c1.1-1.2,2.4-1.7,4.1-1.7
			c1,0,1.8,0.2,2.3,0.6s0.9,1,0.9,1.8c0,1.1-0.5,1.9-1.4,2.6c-0.9,0.6-2,0.9-3.4,0.9C64.3,256.9,63.6,256.7,62.9,256.4"/>
		<path fill="#E31837" d="M79.1,255.1c0.5,0.2,1,0.3,1.7,0.3c1,0,1.7-0.2,2.4-0.5c0.6-0.3,0.9-0.8,0.9-1.4c0-0.8-0.5-1.1-1.6-1.1
			C80.9,252.5,79.8,253.3,79.1,255.1 M78.8,256.4c-0.1,0.3-0.1,0.6-0.1,0.9c0,0.8,0.2,1.4,0.7,1.9c0.5,0.4,1.1,0.7,1.9,0.7
			c0.7,0,1.5-0.3,2.2-0.8l-0.2,1.8c-1,0.3-1.9,0.5-2.6,0.5c-2.6,0-3.8-1.4-3.8-4.3c0-1.7,0.5-3.1,1.6-4.3c1.1-1.2,2.4-1.7,4.1-1.7
			c1,0,1.8,0.2,2.3,0.6s0.9,1,0.9,1.8c0,1.1-0.5,1.9-1.4,2.6c-0.9,0.6-2,0.9-3.4,0.9C80.2,256.9,79.4,256.7,78.8,256.4"/>
		<path fill="#E31837" d="M98.2,261.1l1.1-6.3c0-0.2,0.1-0.5,0.1-0.7c0-1.1-0.5-1.6-1.6-1.6c-0.4,0-0.8,0.1-1.2,0.4
			c-0.4,0.3-0.7,0.6-0.9,0.9l-1.3,7.3h-1.8l1.2-7c0-0.1,0-0.2,0-0.3c0-0.9-0.6-1.3-1.8-1.3c-0.4,0-0.7,0.1-1.2,0.4
			c-0.4,0.3-0.8,0.6-1,0.9l-1.3,7.3h-1.8l1.3-7.2c0-0.2,0.1-0.5,0.1-0.9c0-0.7-0.1-1.2-0.2-1.7l1.7-0.3c0.1,0.5,0.2,0.9,0.2,1.3
			c0.2-0.4,0.7-0.7,1.2-1c0.6-0.2,1.2-0.4,1.8-0.4c1.4,0,2.3,0.4,2.7,1.3c0.3-0.4,0.7-0.7,1.3-0.9c0.6-0.2,1.2-0.4,1.7-0.4
			c1.8,0,2.7,0.9,2.7,2.6c0,0.3,0,0.6-0.1,0.9l-1.2,6.6H98.2z"/>
		<path fill="#E31837" d="M104.5,259.1c0.1,0.2,0.3,0.4,0.7,0.5c0.3,0.1,0.7,0.2,1,0.2c1.3,0,2.3-0.4,3-1.3c0.7-0.9,1.1-2.1,1.1-3.6
			c0-0.8-0.2-1.4-0.6-1.8c-0.4-0.4-1-0.6-1.8-0.6c-0.4,0-0.8,0.1-1.2,0.4c-0.5,0.2-0.8,0.5-1,0.8L104.5,259.1z M104.3,260.6
			l-0.8,4.4h-1.8l1.9-10.9c0.1-0.5,0.1-0.9,0.1-1.4c0-0.5,0-0.9-0.1-1.4l1.8-0.3c0,0.1,0.1,0.5,0.2,1.3c0.3-0.4,0.7-0.7,1.2-0.9
			c0.5-0.2,1-0.4,1.5-0.4c1.2,0,2.2,0.3,2.8,0.9c0.6,0.6,0.9,1.5,0.9,2.8c0,1.9-0.5,3.4-1.6,4.7c-1,1.3-2.4,1.9-4.1,1.9
			c-0.4,0-0.8-0.1-1.3-0.2C104.7,261,104.4,260.8,104.3,260.6"/>
		<path fill="#E31837" d="M115,257.3c0,1.7,0.7,2.5,2.1,2.5c1,0,1.9-0.5,2.5-1.5c0.6-1,0.9-2.2,0.9-3.5c0-1.6-0.7-2.4-2.1-2.4
			c-0.7,0-1.3,0.3-1.9,0.8c-0.5,0.5-0.9,1.2-1.2,1.9C115.1,255.9,115,256.6,115,257.3 M113.1,257.4c0-1.8,0.5-3.3,1.6-4.6
			c1-1.3,2.4-1.9,3.9-1.9c1.2,0,2.1,0.3,2.8,1c0.6,0.7,1,1.6,1,2.8c0,1-0.2,1.9-0.6,3c-0.4,1-1,1.9-1.9,2.6c-0.9,0.7-1.9,1-3.1,1
			c-1.2,0-2.1-0.3-2.7-1C113.4,259.6,113.1,258.6,113.1,257.4"/>
		<path fill="#E31837" d="M132.2,261.3h-0.5l-1.8-6.5l-4,6.5h-0.5l-1.9-10.1h1.8l1.1,6.3l3.7-6.3h0.5l1.8,6.3l3.1-6.3h1.8
			C135.3,255.2,133.6,258.6,132.2,261.3"/>
		<path fill="#E31837" d="M139.9,255.1c0.5,0.2,1,0.3,1.7,0.3c1,0,1.8-0.2,2.4-0.5c0.6-0.3,0.9-0.8,0.9-1.4c0-0.8-0.5-1.1-1.6-1.1
			C141.6,252.5,140.5,253.3,139.9,255.1 M139.6,256.4c-0.1,0.3-0.1,0.6-0.1,0.9c0,0.8,0.2,1.4,0.7,1.9c0.5,0.4,1.1,0.7,1.9,0.7
			c0.7,0,1.5-0.3,2.2-0.8l-0.2,1.8c-1,0.3-1.9,0.5-2.6,0.5c-2.6,0-3.8-1.4-3.8-4.3c0-1.7,0.5-3.1,1.6-4.3c1.1-1.2,2.4-1.7,4.1-1.7
			c1,0,1.8,0.2,2.3,0.6c0.6,0.4,0.9,1,0.9,1.8c0,1.1-0.5,1.9-1.4,2.6c-0.9,0.6-2,0.9-3.4,0.9C140.9,256.9,140.2,256.7,139.6,256.4"
			/>
		<path fill="#E31837" d="M154.6,252.9c-0.4-0.3-0.8-0.4-1.3-0.4c-0.6,0-1.2,0.3-1.8,0.9c-0.6,0.6-0.9,1.3-1.1,2.1l-1,5.7h-1.8
			l1.8-9.9h1.8l-0.3,1.6c0.9-1.2,1.9-1.8,3.2-1.8c0.2,0,0.6,0,1,0.1L154.6,252.9z"/>
		<path fill="#E31837" d="M163.1,259.1c0.1,0.2,0.3,0.4,0.7,0.5c0.3,0.1,0.7,0.2,1,0.2c1.3,0,2.3-0.4,3-1.3s1-2.1,1-3.6
			c0-0.8-0.2-1.4-0.6-1.8c-0.4-0.4-1-0.6-1.8-0.6c-0.4,0-0.8,0.1-1.2,0.4c-0.5,0.2-0.8,0.5-1,0.8L163.1,259.1z M162.9,260.6
			l-0.8,4.4h-1.8l1.9-10.9c0.1-0.5,0.1-0.9,0.1-1.4c0-0.5,0-0.9-0.1-1.4l1.8-0.3c0,0.1,0.1,0.5,0.2,1.3c0.3-0.4,0.7-0.7,1.2-0.9
			c0.5-0.2,1-0.4,1.5-0.4c1.2,0,2.2,0.3,2.8,0.9c0.6,0.6,0.9,1.5,0.9,2.8c0,1.9-0.5,3.4-1.6,4.7c-1,1.3-2.4,1.9-4.1,1.9
			c-0.4,0-0.8-0.1-1.3-0.2C163.3,261,163,260.8,162.9,260.6"/>
		<path fill="#E31837" d="M174.2,255.1c0.5,0.2,1,0.3,1.7,0.3c1,0,1.8-0.2,2.4-0.5c0.6-0.3,0.9-0.8,0.9-1.4c0-0.8-0.5-1.1-1.6-1.1
			C176,252.5,174.9,253.3,174.2,255.1 M173.9,256.4c-0.1,0.3-0.1,0.6-0.1,0.9c0,0.8,0.2,1.4,0.7,1.9c0.5,0.4,1.1,0.7,1.9,0.7
			c0.7,0,1.5-0.3,2.2-0.8l-0.2,1.8c-1,0.3-1.9,0.5-2.6,0.5c-2.6,0-3.8-1.4-3.8-4.3c0-1.7,0.5-3.1,1.6-4.3c1.1-1.2,2.4-1.7,4.1-1.7
			c1,0,1.8,0.2,2.3,0.6s0.9,1,0.9,1.8c0,1.1-0.5,1.9-1.4,2.6c-0.9,0.6-2,0.9-3.4,0.9C175.3,256.9,174.5,256.7,173.9,256.4"/>
		<path fill="#E31837" d="M183.7,257.3c0,1.7,0.7,2.5,2.1,2.5c1,0,1.9-0.5,2.5-1.5c0.6-1,0.9-2.2,0.9-3.5c0-1.6-0.7-2.4-2.1-2.4
			c-0.7,0-1.3,0.3-1.9,0.8c-0.5,0.5-0.9,1.2-1.2,1.9C183.9,255.9,183.7,256.6,183.7,257.3 M181.9,257.4c0-1.8,0.5-3.3,1.6-4.6
			c1-1.3,2.4-1.9,4-1.9c1.2,0,2.1,0.3,2.8,1c0.6,0.7,1,1.6,1,2.8c0,1-0.2,1.9-0.6,3c-0.4,1-1,1.9-1.9,2.6s-1.9,1-3.1,1
			c-1.2,0-2.1-0.3-2.7-1C182.2,259.6,181.9,258.6,181.9,257.4"/>
		<path fill="#E31837" d="M194,259.1c0.1,0.2,0.3,0.4,0.7,0.5c0.3,0.1,0.7,0.2,1,0.2c1.3,0,2.3-0.4,3-1.3c0.7-0.9,1-2.1,1-3.6
			c0-0.8-0.2-1.4-0.6-1.8c-0.4-0.4-1-0.6-1.8-0.6c-0.4,0-0.8,0.1-1.2,0.4c-0.5,0.2-0.8,0.5-1,0.8L194,259.1z M193.8,260.6L193,265
			h-1.8l1.9-10.9c0.1-0.5,0.1-0.9,0.1-1.4c0-0.5,0-0.9-0.1-1.4l1.8-0.3c0,0.1,0.1,0.5,0.2,1.3c0.3-0.4,0.7-0.7,1.2-0.9
			c0.5-0.2,1-0.4,1.5-0.4c1.2,0,2.2,0.3,2.8,0.9c0.6,0.6,0.9,1.5,0.9,2.8c0,1.9-0.5,3.4-1.6,4.7c-1,1.3-2.4,1.9-4.1,1.9
			c-0.4,0-0.8-0.1-1.3-0.2C194.2,261,193.9,260.8,193.8,260.6"/>
		<path fill="#E31837" d="M206.5,260l-0.2,1.3c-2,0-3-0.7-3-2.2c0-0.4,0.2-1.4,0.5-3l1.8-9h1.8l-1.7,8.4c-0.4,1.8-0.5,2.9-0.5,3.3
			C205.1,259.6,205.6,260,206.5,260"/>
		<path fill="#E31837" d="M211.2,255.1c0.5,0.2,1,0.3,1.7,0.3c1,0,1.8-0.2,2.4-0.5c0.6-0.3,0.9-0.8,0.9-1.4c0-0.8-0.5-1.1-1.6-1.1
			C213,252.5,211.8,253.3,211.2,255.1 M210.9,256.4c-0.1,0.3-0.1,0.6-0.1,0.9c0,0.8,0.2,1.4,0.7,1.9c0.5,0.4,1.1,0.7,1.9,0.7
			c0.7,0,1.5-0.3,2.2-0.8l-0.2,1.8c-1,0.3-1.9,0.5-2.6,0.5c-2.6,0-3.8-1.4-3.8-4.3c0-1.7,0.5-3.1,1.6-4.3c1.1-1.2,2.4-1.7,4.1-1.7
			c1,0,1.8,0.2,2.3,0.6c0.6,0.4,0.9,1,0.9,1.8c0,1.1-0.5,1.9-1.4,2.6c-0.9,0.6-2,0.9-3.4,0.9C212.3,256.9,211.5,256.7,210.9,256.4"
			/>
		<path fill="#005596" d="M240.5,193.7V181h-2v-3h5.7v15.7H240.5z M242.4,171.9c0.6,0,1.1,0.2,1.5,0.6c0.4,0.4,0.6,0.9,0.6,1.5
			c0,0.6-0.2,1.1-0.6,1.5c-0.4,0.4-0.9,0.6-1.5,0.6c-0.6,0-1.1-0.2-1.5-0.6c-0.4-0.4-0.6-0.9-0.6-1.5c0-0.6,0.2-1.1,0.6-1.5
			C241.3,172.2,241.8,171.9,242.4,171.9"/>
		<path fill="#005596" d="M249,181h-1.8V178h1.8v-3.2l3.7-1.3v4.5h4.3v2.9h-4.3v6.9c0,1.1,0.2,1.9,0.5,2.4c0.4,0.5,1,0.7,1.8,0.7
			c0.9,0,1.7-0.2,2.5-0.7v3.4c-0.9,0.3-2.1,0.4-3.6,0.4c-1.6,0-2.8-0.4-3.6-1.3c-0.8-0.9-1.3-2.1-1.3-3.8V181z"/>
		<path fill="#005596" d="M268.1,196.3c-0.4,1-1.2,1.9-2.5,2.6c-1.3,0.7-2.8,1-4.5,1v-3.2c2.8,0,4.2-0.7,4.2-2.1
			c0-0.9-0.4-2.4-1.2-4.3l-4.9-12.2h3.8l4.3,10.9l3.9-10.9h3.8L268.1,196.3z"/>
		<path fill="#005596" d="M126.3,11.3c0-6.2,5-11.3,11.3-11.3c6.2,0,11.3,5,11.3,11.3c0,6.2-5,11.3-11.3,11.3
			C131.4,22.5,126.3,17.5,126.3,11.3"/>
	</g>
	<polygon fill="#E31837" points="132.8,39.9 132.8,33.4 108.6,18.6 108.6,30.3 	"/>
	<polygon fill="#E31837" points="142.4,39.7 142.4,33.4 166.3,18.7 166.3,30.3 	"/>
	<polygon fill="#FDB913" points="132.6,61.1 132.6,44.5 97.5,30.4 97.5,49 	"/>
	<polygon fill="#005596" points="142.5,61 142.5,44.4 177.5,30.6 177.5,49.1 	"/>
	<polygon fill="#005596" points="132.7,65.6 80.6,47.4 80.6,84.5 	"/>
	<polygon fill="#FDB913" points="142.6,65.6 193.9,47.4 193.9,84.5 	"/>
	<rect x="128.3" y="72.2" fill="#E31837" width="18.2" height="49.4"/>
	<polygon fill="#E31837" points="122.4,120.4 122.4,74.2 100.7,82.1 100.7,111.3 	"/>
	<polygon fill="#E31837" points="151.6,120.4 151.6,74.2 173.3,82.1 173.3,111.3 	"/>
	<g>
		<path fill="#005596" d="M200.9,22c10.2,12.2,16.7,30.2,16.7,49c0,44.9-36.1,80.4-80.2,80.4c-44.2,0-80.5-35.6-80.5-80.5
			c0-18.5,6-35,16.8-48.8c-4.9,8-6.7,11.6-9.6,22.2c-1.9,7.2-2.3,15.1-2.3,22.5c1.1,17.1,6.2,28.2,15.4,42
			c13.7,18.1,34.8,29.9,60.1,29.9c42,0,75-33,75.6-74.3C212.8,48.8,209,34.6,200.9,22"/>
		<path fill="#005596" d="M44.2,221.4c0,3.5,1.2,5.2,3.7,5.2c1.1,0,2-0.4,2.7-1.3c0.7-0.9,1-2.2,1-3.8c0-3.4-1.2-5.1-3.7-5.1
			c-1.1,0-2.1,0.5-2.7,1.3C44.5,218.5,44.2,219.8,44.2,221.4 M40.4,221.4c0-2.4,0.7-4.3,2.1-5.8c1.4-1.5,3.2-2.3,5.5-2.3
			c2.4,0,4.2,0.7,5.6,2.2c1.3,1.4,2,3.4,2,5.9c0,2.5-0.7,4.5-2,6c-1.3,1.5-3.2,2.2-5.5,2.2c-2.4,0-4.2-0.7-5.6-2.2
			C41,225.9,40.4,223.9,40.4,221.4"/>
		<path fill="#005596" d="M67.2,210.5c-0.8-0.3-1.4-0.4-1.8-0.4c-0.7,0-1.3,0.3-1.8,0.9c-0.5,0.6-0.7,1.3-0.7,2.2c0,0.1,0,0.3,0,0.4
			h3.3v3h-3.2v12.7h-3.7v-12.7h-2.3v-3h2.3c0.1-1.9,0.6-3.5,1.7-4.7c1.1-1.2,2.4-1.8,4.1-1.8c0.9,0,1.9,0.2,3.2,0.6L67.2,210.5z"/>
	</g>
	<polygon fill="#005596" points="87.5,211.2 87.5,229.3 83.7,229.3 83.7,211.2 76.9,211.2 76.9,207.8 94.7,207.8 94.7,211.2 	"/>
	<g>
		<path fill="#005596" d="M96.7,219.8h7.7c-0.3-2.3-1.5-3.4-3.8-3.4C98.5,216.4,97.2,217.5,96.7,219.8 M107.8,222.6H96.6
			c0.1,1.3,0.5,2.2,1.3,2.9c0.8,0.7,1.9,1,3.2,1c1.7,0,2.9-0.4,3.8-1.3l1.4,2.8c-1.3,1-3.2,1.6-5.8,1.6c-2.4,0-4.3-0.7-5.7-2.1
			c-1.4-1.4-2.1-3.4-2.1-5.9c0-2.5,0.8-4.5,2.3-6c1.5-1.5,3.4-2.3,5.5-2.3c2.3,0,4.1,0.7,5.5,2c1.4,1.4,2.1,3.1,2.1,5.2
			C108.1,221,108,221.7,107.8,222.6"/>
		<path fill="#005596" d="M123.4,214.8l-1.6,2.7c-0.9-0.8-2-1.2-3.5-1.2c-1.4,0-2.5,0.5-3.3,1.4c-0.8,0.9-1.2,2.2-1.2,3.8
			c0,3.3,1.6,4.9,4.7,4.9c1.4,0,2.6-0.4,3.6-1.4l1.3,2.9c-1.1,0.7-2,1.1-2.8,1.3c-0.8,0.2-1.7,0.3-2.8,0.3c-2.4,0-4.3-0.7-5.7-2.1
			c-1.4-1.4-2.1-3.4-2.1-5.9c0-2.5,0.8-4.5,2.3-6c1.5-1.5,3.6-2.3,6.3-2.3C120.4,213.3,122,213.8,123.4,214.8"/>
		<path fill="#005596" d="M136.6,229.3v-9.7c0-1-0.3-1.7-0.9-2.3c-0.6-0.6-1.4-0.9-2.4-0.9c-0.6,0-1.2,0.2-1.8,0.5
			c-0.6,0.3-1.1,0.7-1.3,1.1v11.3h-3.7v-21.6l3.7-0.9v7.7c0.9-0.9,2.3-1.3,3.9-1.3c2,0,3.5,0.5,4.6,1.6c1.1,1.1,1.6,2.6,1.6,4.7v9.7
			H136.6z"/>
		<path fill="#005596" d="M155.1,229.3v-9.1c0-1.3-0.3-2.3-0.8-2.9c-0.5-0.6-1.3-0.9-2.5-0.9c-0.5,0-1.1,0.2-1.7,0.5
			c-0.6,0.3-1.1,0.7-1.4,1.1v11.4H145v-15.7h2.6l0.7,1.5c1-1.2,2.5-1.8,4.4-1.8c1.9,0,3.3,0.6,4.4,1.7c1.1,1.1,1.6,2.7,1.6,4.7v9.6
			H155.1z"/>
		<path fill="#005596" d="M165.5,221.4c0,3.5,1.2,5.2,3.7,5.2c1.1,0,2-0.4,2.7-1.3c0.7-0.9,1-2.2,1-3.8c0-3.4-1.2-5.1-3.7-5.1
			c-1.1,0-2.1,0.5-2.7,1.3C165.9,218.5,165.5,219.8,165.5,221.4 M161.7,221.4c0-2.4,0.7-4.3,2.1-5.8c1.4-1.5,3.2-2.3,5.5-2.3
			c2.4,0,4.2,0.7,5.6,2.2c1.3,1.4,2,3.4,2,5.9c0,2.5-0.7,4.5-2,6c-1.3,1.5-3.2,2.2-5.5,2.2c-2.4,0-4.2-0.7-5.6-2.2
			C162.4,225.9,161.7,223.9,161.7,221.4"/>
		<path fill="#005596" d="M180.4,207.7l3.7-0.9v17.7c0,1.9,0.6,3.1,1.7,3.5c-0.6,1.1-1.5,1.6-2.9,1.6c-1.7,0-2.5-1.2-2.5-3.5V207.7z
			"/>
		<path fill="#005596" d="M191.4,221.4c0,3.5,1.2,5.2,3.7,5.2c1.1,0,2-0.4,2.7-1.3c0.7-0.9,1-2.2,1-3.8c0-3.4-1.2-5.1-3.7-5.1
			c-1.1,0-2.1,0.5-2.7,1.3C191.7,218.5,191.4,219.8,191.4,221.4 M187.6,221.4c0-2.4,0.7-4.3,2.1-5.8c1.4-1.5,3.2-2.3,5.5-2.3
			c2.4,0,4.2,0.7,5.6,2.2c1.3,1.4,2,3.4,2,5.9c0,2.5-0.7,4.5-2,6c-1.3,1.5-3.2,2.2-5.5,2.2c-2.4,0-4.2-0.7-5.6-2.2
			C188.2,225.9,187.6,223.9,187.6,221.4"/>
		<path fill="#005596" d="M208.9,219.1c0,0.9,0.3,1.7,0.8,2.2c0.5,0.6,1.2,0.8,2.1,0.8c0.9,0,1.5-0.3,2-0.8c0.5-0.5,0.7-1.3,0.7-2.3
			c0-0.8-0.3-1.5-0.8-2c-0.5-0.5-1.1-0.8-1.9-0.8c-0.8,0-1.5,0.3-2.1,0.8C209.1,217.6,208.9,218.3,208.9,219.1 M205.2,233.3l2.3-2.9
			c1.3,1.2,2.7,1.8,4.3,1.8c1.1,0,1.9-0.2,2.6-0.5c0.7-0.3,1-0.7,1-1.3c0-0.9-0.8-1.4-2.3-1.4c-0.4,0-1,0.1-1.8,0.1
			c-0.8,0.1-1.4,0.1-1.8,0.1c-2.5,0-3.8-0.9-3.8-2.7c0-0.5,0.2-1,0.6-1.5c0.4-0.5,0.9-0.9,1.5-1.1c-1.8-1.2-2.7-2.8-2.7-4.9
			c0-1.7,0.6-3.1,1.9-4.2c1.2-1.1,2.7-1.7,4.5-1.7c1.4,0,2.6,0.3,3.5,0.8l1.4-1.7l2.5,2.3l-1.7,1.3c0.6,0.9,0.9,2,0.9,3.3
			c0,1.8-0.5,3.2-1.6,4.3c-1.1,1.1-2.5,1.6-4.1,1.6c-0.3,0-0.6,0-1.1-0.1l-0.6-0.1c-0.1,0-0.3,0.1-0.8,0.3c-0.5,0.2-0.7,0.4-0.7,0.6
			c0,0.4,0.3,0.6,1,0.6c0.3,0,0.8-0.1,1.5-0.2c0.7-0.1,1.3-0.2,1.8-0.2c3.6,0,5.4,1.4,5.4,4.3c0,1.6-0.7,2.8-2.1,3.7
			c-1.4,0.9-3.1,1.4-5.2,1.4C209.3,235.5,207.1,234.8,205.2,233.3"/>
		<path fill="#005596" d="M228.4,231.8c-0.4,1-1.2,1.9-2.5,2.6c-1.3,0.7-2.8,1-4.5,1v-3.2c2.8,0,4.2-0.7,4.2-2.1
			c0-0.9-0.4-2.4-1.2-4.3l-4.9-12.2h3.8l4.3,10.9l3.9-10.9h3.8L228.4,231.8z"/>
	</g>
	<polygon fill="#005596" points="10.6,175.6 10.6,193.7 6.8,193.7 6.8,175.6 0,175.6 0,172.3 17.8,172.3 17.8,175.6 	"/>
	<g>
		<path fill="#005596" d="M15.9,192.7l1.3-2.9c1.1,0.9,2.3,1.3,3.7,1.3c1.4,0,2.1-0.5,2.1-1.5c0-0.6-0.2-1.1-0.6-1.5
			c-0.4-0.4-1.3-0.8-2.5-1.3c-2.7-1.1-4.1-2.7-4.1-4.7c0-1.4,0.5-2.4,1.6-3.2c1-0.8,2.4-1.1,4-1.1c1.6,0,3.2,0.4,4.6,1.1l-1.1,2.8
			c-0.8-0.7-1.9-1-3.3-1c-1.3,0-1.9,0.5-1.9,1.5c0,0.4,0.2,0.8,0.6,1.1c0.4,0.3,1.3,0.8,2.7,1.3c1.4,0.5,2.4,1.2,3,2
			c0.6,0.8,0.9,1.7,0.9,2.8c0,1.5-0.5,2.6-1.6,3.5c-1.1,0.8-2.5,1.2-4.4,1.2c-1,0-1.9-0.1-2.5-0.3C17.7,193.6,16.9,193.3,15.9,192.7
			"/>
		<path fill="#005596" d="M40.8,193.7v-9.7c0-1-0.3-1.7-0.9-2.3c-0.6-0.6-1.4-0.9-2.4-0.9c-0.6,0-1.2,0.2-1.8,0.5
			c-0.6,0.3-1.1,0.7-1.3,1.1v11.3h-3.7v-21.6l3.7-0.9v7.7c0.9-0.9,2.3-1.3,3.9-1.3c2,0,3.5,0.5,4.6,1.6c1.1,1.1,1.6,2.6,1.6,4.7v9.7
			H40.8z"/>
	</g>
	<polygon fill="#005596" points="63.9,194 62.5,194 58.2,184.4 53.9,194 52.6,194 46.6,178 50.5,178 53.7,187.4 57.5,178 58.8,178 
		62.8,187.5 66.2,178 69.8,178 	"/>
	<g>
		<path fill="#005596" d="M80.4,186.4c-0.6-0.1-1.1-0.2-1.4-0.2c-2.9,0-4.3,1-4.3,2.8c0,1.4,0.8,2.1,2.4,2.1c2.2,0,3.3-1.1,3.3-3.3
			V186.4z M80.7,192.2c-0.3,0.5-0.9,1-1.7,1.3c-0.8,0.3-1.7,0.5-2.6,0.5c-1.7,0-3-0.4-4-1.3c-1-0.8-1.5-2-1.5-3.6
			c0-1.8,0.7-3.2,2-4.3c1.4-1,3.3-1.5,5.8-1.5c0.4,0,0.9,0.1,1.5,0.2c0-1.8-1.2-2.8-3.5-2.8c-1.4,0-2.5,0.2-3.5,0.7l-0.8-2.8
			c1.3-0.6,2.8-0.9,4.5-0.9c2.4,0,4.2,0.5,5.3,1.6c1.1,1.1,1.7,3.1,1.7,6.2v3.4c0,2.1,0.4,3.4,1.3,3.9c-0.3,0.5-0.6,0.8-1,1
			c-0.4,0.1-0.8,0.2-1.3,0.2c-0.5,0-1-0.2-1.4-0.6C81.1,193.1,80.9,192.6,80.7,192.2"/>
		<path fill="#005596" d="M98.1,193.7v-9.1c0-1.3-0.3-2.3-0.8-2.9c-0.5-0.6-1.3-0.9-2.5-0.9c-0.5,0-1.1,0.1-1.7,0.5
			c-0.6,0.3-1.1,0.7-1.4,1.1v11.4H88V178h2.6l0.7,1.5c1-1.2,2.5-1.8,4.4-1.8c1.9,0,3.3,0.6,4.4,1.7c1.1,1.1,1.6,2.7,1.6,4.7v9.6
			H98.1z"/>
		<path fill="#005596" d="M109.4,184.3h7.7c-0.3-2.3-1.5-3.4-3.8-3.4C111.2,180.8,109.9,182,109.4,184.3 M120.5,187h-11.2
			c0.1,1.2,0.5,2.2,1.3,2.9c0.8,0.7,1.9,1,3.2,1c1.7,0,2.9-0.4,3.8-1.3l1.4,2.8c-1.3,1-3.2,1.6-5.8,1.6c-2.4,0-4.3-0.7-5.7-2.1
			c-1.4-1.4-2.1-3.4-2.1-5.9c0-2.5,0.8-4.5,2.3-6c1.5-1.5,3.4-2.3,5.5-2.3c2.3,0,4.1,0.7,5.5,2c1.4,1.4,2.1,3.1,2.1,5.2
			C120.8,185.4,120.7,186.1,120.5,187"/>
		<path fill="#005596" d="M133,172.3h3.8v14.6c0,1.2,0.4,2.1,1.1,2.8c0.7,0.7,1.7,1.1,2.9,1.1c1.4,0,2.4-0.4,3.2-1.1
			c0.8-0.7,1.2-1.7,1.2-2.9v-14.5h3.8V187c0,2.2-0.7,3.9-2.2,5.2c-1.5,1.2-3.5,1.9-5.9,1.9c-2.5,0-4.4-0.6-5.8-1.8
			c-1.3-1.2-2-3-2-5.3V172.3z"/>
		<path fill="#005596" d="M163.3,193.7v-9.1c0-1.3-0.3-2.3-0.8-2.9c-0.5-0.6-1.3-0.9-2.5-0.9c-0.5,0-1.1,0.1-1.7,0.5
			c-0.6,0.3-1.1,0.7-1.4,1.1v11.4h-3.7V178h2.6l0.7,1.5c1-1.2,2.5-1.8,4.4-1.8c1.9,0,3.3,0.6,4.4,1.7c1.1,1.1,1.6,2.7,1.6,4.7v9.6
			H163.3z"/>
		<path fill="#005596" d="M171.9,193.7V181h-2v-3h5.7v15.7H171.9z M173.8,171.9c0.6,0,1.1,0.2,1.5,0.6c0.4,0.4,0.6,0.9,0.6,1.5
			c0,0.6-0.2,1.1-0.6,1.5c-0.4,0.4-0.9,0.6-1.5,0.6c-0.6,0-1.1-0.2-1.5-0.6c-0.4-0.4-0.6-0.9-0.6-1.5c0-0.6,0.2-1.1,0.6-1.5
			C172.7,172.2,173.2,171.9,173.8,171.9"/>
	</g>
	<polygon fill="#005596" points="186.4,194 185,194 177.9,178 182,178 185.7,187.6 189.7,178 193.6,178 	"/>
	<g>
		<path fill="#005596" d="M199.4,184.3h7.7c-0.3-2.3-1.5-3.4-3.8-3.4C201.2,180.8,199.9,182,199.4,184.3 M210.5,187h-11.2
			c0.1,1.2,0.5,2.2,1.3,2.9c0.8,0.7,1.9,1,3.2,1c1.7,0,2.9-0.4,3.8-1.3l1.4,2.8c-1.3,1-3.2,1.6-5.8,1.6c-2.4,0-4.3-0.7-5.7-2.1
			c-1.4-1.4-2.1-3.4-2.1-5.9c0-2.5,0.8-4.5,2.3-6c1.5-1.5,3.4-2.3,5.5-2.3c2.3,0,4.1,0.7,5.5,2c1.4,1.4,2.1,3.1,2.1,5.2
			C210.8,185.4,210.7,186.1,210.5,187"/>
		<path fill="#005596" d="M222.8,181.5c-0.7-0.4-1.4-0.6-2.2-0.6c-0.9,0-1.6,0.4-2.3,1.2c-0.7,0.8-1,1.7-1,2.8v8.9h-3.7V178h3.7v1.4
			c1-1.2,2.4-1.7,4.1-1.7c1.2,0,2.2,0.2,2.9,0.6L222.8,181.5z"/>
		<path fill="#005596" d="M225.6,192.7l1.3-2.9c1.1,0.9,2.3,1.3,3.7,1.3c1.4,0,2.1-0.5,2.1-1.5c0-0.6-0.2-1.1-0.6-1.5
			c-0.4-0.4-1.3-0.8-2.5-1.3c-2.7-1.1-4.1-2.7-4.1-4.7c0-1.4,0.5-2.4,1.6-3.2c1-0.8,2.4-1.1,4-1.1c1.6,0,3.2,0.4,4.6,1.1l-1.1,2.8
			c-0.8-0.7-1.9-1-3.3-1c-1.3,0-1.9,0.5-1.9,1.5c0,0.4,0.2,0.8,0.6,1.1c0.4,0.3,1.3,0.8,2.7,1.3c1.4,0.5,2.4,1.2,3,2
			c0.6,0.8,0.9,1.7,0.9,2.8c0,1.5-0.5,2.6-1.6,3.5c-1.1,0.8-2.5,1.2-4.4,1.2c-1,0-1.9-0.1-2.5-0.3
			C227.4,193.6,226.6,193.3,225.6,192.7"/>
	</g>
	<polygon fill="#E31837" points="54.9,261.3 54.3,261.3 52.8,252.1 48.1,261.3 47.5,261.3 45.6,247.5 47.6,247.5 48.7,256.7 
		53.3,247.5 53.9,247.5 55.3,256.6 59.5,247.5 61.6,247.5 	"/>
	<g>
		<path fill="#E31837" d="M63.3,255.1c0.5,0.2,1,0.3,1.7,0.3c1,0,1.7-0.2,2.4-0.5c0.6-0.3,0.9-0.8,0.9-1.4c0-0.8-0.5-1.1-1.6-1.1
			C65,252.5,63.9,253.3,63.3,255.1 M62.9,256.4c-0.1,0.3-0.1,0.6-0.1,0.9c0,0.8,0.2,1.4,0.7,1.9c0.5,0.4,1.1,0.7,1.9,0.7
			c0.7,0,1.5-0.3,2.2-0.8l-0.2,1.8c-1,0.3-1.9,0.5-2.6,0.5c-2.6,0-3.8-1.4-3.8-4.3c0-1.7,0.5-3.1,1.6-4.3c1.1-1.2,2.4-1.7,4.1-1.7
			c1,0,1.8,0.2,2.3,0.6s0.9,1,0.9,1.8c0,1.1-0.5,1.9-1.4,2.6c-0.9,0.6-2,0.9-3.4,0.9C64.3,256.9,63.6,256.7,62.9,256.4"/>
		<path fill="#E31837" d="M79.1,255.1c0.5,0.2,1,0.3,1.7,0.3c1,0,1.7-0.2,2.4-0.5c0.6-0.3,0.9-0.8,0.9-1.4c0-0.8-0.5-1.1-1.6-1.1
			C80.9,252.5,79.8,253.3,79.1,255.1 M78.8,256.4c-0.1,0.3-0.1,0.6-0.1,0.9c0,0.8,0.2,1.4,0.7,1.9c0.5,0.4,1.1,0.7,1.9,0.7
			c0.7,0,1.5-0.3,2.2-0.8l-0.2,1.8c-1,0.3-1.9,0.5-2.6,0.5c-2.6,0-3.8-1.4-3.8-4.3c0-1.7,0.5-3.1,1.6-4.3c1.1-1.2,2.4-1.7,4.1-1.7
			c1,0,1.8,0.2,2.3,0.6s0.9,1,0.9,1.8c0,1.1-0.5,1.9-1.4,2.6c-0.9,0.6-2,0.9-3.4,0.9C80.2,256.9,79.4,256.7,78.8,256.4"/>
		<path fill="#E31837" d="M98.2,261.1l1.1-6.3c0-0.2,0.1-0.5,0.1-0.7c0-1.1-0.5-1.6-1.6-1.6c-0.4,0-0.8,0.1-1.2,0.4
			c-0.4,0.3-0.7,0.6-0.9,0.9l-1.3,7.3h-1.8l1.2-7c0-0.1,0-0.2,0-0.3c0-0.9-0.6-1.3-1.8-1.3c-0.4,0-0.7,0.1-1.2,0.4
			c-0.4,0.3-0.8,0.6-1,0.9l-1.3,7.3h-1.8l1.3-7.2c0-0.2,0.1-0.5,0.1-0.9c0-0.7-0.1-1.2-0.2-1.7l1.7-0.3c0.1,0.5,0.2,0.9,0.2,1.3
			c0.2-0.4,0.7-0.7,1.2-1c0.6-0.2,1.2-0.4,1.8-0.4c1.4,0,2.3,0.4,2.7,1.3c0.3-0.4,0.7-0.7,1.3-0.9c0.6-0.2,1.2-0.4,1.7-0.4
			c1.8,0,2.7,0.9,2.7,2.6c0,0.3,0,0.6-0.1,0.9l-1.2,6.6H98.2z"/>
		<path fill="#E31837" d="M104.5,259.1c0.1,0.2,0.3,0.4,0.7,0.5c0.3,0.1,0.7,0.2,1,0.2c1.3,0,2.3-0.4,3-1.3c0.7-0.9,1.1-2.1,1.1-3.6
			c0-0.8-0.2-1.4-0.6-1.8c-0.4-0.4-1-0.6-1.8-0.6c-0.4,0-0.8,0.1-1.2,0.4c-0.5,0.2-0.8,0.5-1,0.8L104.5,259.1z M104.3,260.6
			l-0.8,4.4h-1.8l1.9-10.9c0.1-0.5,0.1-0.9,0.1-1.4c0-0.5,0-0.9-0.1-1.4l1.8-0.3c0,0.1,0.1,0.5,0.2,1.3c0.3-0.4,0.7-0.7,1.2-0.9
			c0.5-0.2,1-0.4,1.5-0.4c1.2,0,2.2,0.3,2.8,0.9c0.6,0.6,0.9,1.5,0.9,2.8c0,1.9-0.5,3.4-1.6,4.7c-1,1.3-2.4,1.9-4.1,1.9
			c-0.4,0-0.8-0.1-1.3-0.2C104.7,261,104.4,260.8,104.3,260.6"/>
		<path fill="#E31837" d="M115,257.3c0,1.7,0.7,2.5,2.1,2.5c1,0,1.9-0.5,2.5-1.5c0.6-1,0.9-2.2,0.9-3.5c0-1.6-0.7-2.4-2.1-2.4
			c-0.7,0-1.3,0.3-1.9,0.8c-0.5,0.5-0.9,1.2-1.2,1.9C115.1,255.9,115,256.6,115,257.3 M113.1,257.4c0-1.8,0.5-3.3,1.6-4.6
			c1-1.3,2.4-1.9,3.9-1.9c1.2,0,2.1,0.3,2.8,1c0.6,0.7,1,1.6,1,2.8c0,1-0.2,1.9-0.6,3c-0.4,1-1,1.9-1.9,2.6c-0.9,0.7-1.9,1-3.1,1
			c-1.2,0-2.1-0.3-2.7-1C113.4,259.6,113.1,258.6,113.1,257.4"/>
		<path fill="#E31837" d="M132.2,261.3h-0.5l-1.8-6.5l-4,6.5h-0.5l-1.9-10.1h1.8l1.1,6.3l3.7-6.3h0.5l1.8,6.3l3.1-6.3h1.8
			C135.3,255.2,133.6,258.6,132.2,261.3"/>
		<path fill="#E31837" d="M139.9,255.1c0.5,0.2,1,0.3,1.7,0.3c1,0,1.8-0.2,2.4-0.5c0.6-0.3,0.9-0.8,0.9-1.4c0-0.8-0.5-1.1-1.6-1.1
			C141.6,252.5,140.5,253.3,139.9,255.1 M139.6,256.4c-0.1,0.3-0.1,0.6-0.1,0.9c0,0.8,0.2,1.4,0.7,1.9c0.5,0.4,1.1,0.7,1.9,0.7
			c0.7,0,1.5-0.3,2.2-0.8l-0.2,1.8c-1,0.3-1.9,0.5-2.6,0.5c-2.6,0-3.8-1.4-3.8-4.3c0-1.7,0.5-3.1,1.6-4.3c1.1-1.2,2.4-1.7,4.1-1.7
			c1,0,1.8,0.2,2.3,0.6c0.6,0.4,0.9,1,0.9,1.8c0,1.1-0.5,1.9-1.4,2.6c-0.9,0.6-2,0.9-3.4,0.9C140.9,256.9,140.2,256.7,139.6,256.4"
			/>
		<path fill="#E31837" d="M154.6,252.9c-0.4-0.3-0.8-0.4-1.3-0.4c-0.6,0-1.2,0.3-1.8,0.9c-0.6,0.6-0.9,1.3-1.1,2.1l-1,5.7h-1.8
			l1.8-9.9h1.8l-0.3,1.6c0.9-1.2,1.9-1.8,3.2-1.8c0.2,0,0.6,0,1,0.1L154.6,252.9z"/>
		<path fill="#E31837" d="M163.1,259.1c0.1,0.2,0.3,0.4,0.7,0.5c0.3,0.1,0.7,0.2,1,0.2c1.3,0,2.3-0.4,3-1.3s1-2.1,1-3.6
			c0-0.8-0.2-1.4-0.6-1.8c-0.4-0.4-1-0.6-1.8-0.6c-0.4,0-0.8,0.1-1.2,0.4c-0.5,0.2-0.8,0.5-1,0.8L163.1,259.1z M162.9,260.6
			l-0.8,4.4h-1.8l1.9-10.9c0.1-0.5,0.1-0.9,0.1-1.4c0-0.5,0-0.9-0.1-1.4l1.8-0.3c0,0.1,0.1,0.5,0.2,1.3c0.3-0.4,0.7-0.7,1.2-0.9
			c0.5-0.2,1-0.4,1.5-0.4c1.2,0,2.2,0.3,2.8,0.9c0.6,0.6,0.9,1.5,0.9,2.8c0,1.9-0.5,3.4-1.6,4.7c-1,1.3-2.4,1.9-4.1,1.9
			c-0.4,0-0.8-0.1-1.3-0.2C163.3,261,163,260.8,162.9,260.6"/>
		<path fill="#E31837" d="M174.2,255.1c0.5,0.2,1,0.3,1.7,0.3c1,0,1.8-0.2,2.4-0.5c0.6-0.3,0.9-0.8,0.9-1.4c0-0.8-0.5-1.1-1.6-1.1
			C176,252.5,174.9,253.3,174.2,255.1 M173.9,256.4c-0.1,0.3-0.1,0.6-0.1,0.9c0,0.8,0.2,1.4,0.7,1.9c0.5,0.4,1.1,0.7,1.9,0.7
			c0.7,0,1.5-0.3,2.2-0.8l-0.2,1.8c-1,0.3-1.9,0.5-2.6,0.5c-2.6,0-3.8-1.4-3.8-4.3c0-1.7,0.5-3.1,1.6-4.3c1.1-1.2,2.4-1.7,4.1-1.7
			c1,0,1.8,0.2,2.3,0.6s0.9,1,0.9,1.8c0,1.1-0.5,1.9-1.4,2.6c-0.9,0.6-2,0.9-3.4,0.9C175.3,256.9,174.5,256.7,173.9,256.4"/>
		<path fill="#E31837" d="M183.7,257.3c0,1.7,0.7,2.5,2.1,2.5c1,0,1.9-0.5,2.5-1.5c0.6-1,0.9-2.2,0.9-3.5c0-1.6-0.7-2.4-2.1-2.4
			c-0.7,0-1.3,0.3-1.9,0.8c-0.5,0.5-0.9,1.2-1.2,1.9C183.9,255.9,183.7,256.6,183.7,257.3 M181.9,257.4c0-1.8,0.5-3.3,1.6-4.6
			c1-1.3,2.4-1.9,4-1.9c1.2,0,2.1,0.3,2.8,1c0.6,0.7,1,1.6,1,2.8c0,1-0.2,1.9-0.6,3c-0.4,1-1,1.9-1.9,2.6s-1.9,1-3.1,1
			c-1.2,0-2.1-0.3-2.7-1C182.2,259.6,181.9,258.6,181.9,257.4"/>
		<path fill="#E31837" d="M194,259.1c0.1,0.2,0.3,0.4,0.7,0.5c0.3,0.1,0.7,0.2,1,0.2c1.3,0,2.3-0.4,3-1.3c0.7-0.9,1-2.1,1-3.6
			c0-0.8-0.2-1.4-0.6-1.8c-0.4-0.4-1-0.6-1.8-0.6c-0.4,0-0.8,0.1-1.2,0.4c-0.5,0.2-0.8,0.5-1,0.8L194,259.1z M193.8,260.6L193,265
			h-1.8l1.9-10.9c0.1-0.5,0.1-0.9,0.1-1.4c0-0.5,0-0.9-0.1-1.4l1.8-0.3c0,0.1,0.1,0.5,0.2,1.3c0.3-0.4,0.7-0.7,1.2-0.9
			c0.5-0.2,1-0.4,1.5-0.4c1.2,0,2.2,0.3,2.8,0.9c0.6,0.6,0.9,1.5,0.9,2.8c0,1.9-0.5,3.4-1.6,4.7c-1,1.3-2.4,1.9-4.1,1.9
			c-0.4,0-0.8-0.1-1.3-0.2C194.2,261,193.9,260.8,193.8,260.6"/>
		<path fill="#E31837" d="M206.5,260l-0.2,1.3c-2,0-3-0.7-3-2.2c0-0.4,0.2-1.4,0.5-3l1.8-9h1.8l-1.7,8.4c-0.4,1.8-0.5,2.9-0.5,3.3
			C205.1,259.6,205.6,260,206.5,260"/>
		<path fill="#E31837" d="M211.2,255.1c0.5,0.2,1,0.3,1.7,0.3c1,0,1.8-0.2,2.4-0.5c0.6-0.3,0.9-0.8,0.9-1.4c0-0.8-0.5-1.1-1.6-1.1
			C213,252.5,211.8,253.3,211.2,255.1 M210.9,256.4c-0.1,0.3-0.1,0.6-0.1,0.9c0,0.8,0.2,1.4,0.7,1.9c0.5,0.4,1.1,0.7,1.9,0.7
			c0.7,0,1.5-0.3,2.2-0.8l-0.2,1.8c-1,0.3-1.9,0.5-2.6,0.5c-2.6,0-3.8-1.4-3.8-4.3c0-1.7,0.5-3.1,1.6-4.3c1.1-1.2,2.4-1.7,4.1-1.7
			c1,0,1.8,0.2,2.3,0.6c0.6,0.4,0.9,1,0.9,1.8c0,1.1-0.5,1.9-1.4,2.6c-0.9,0.6-2,0.9-3.4,0.9C212.3,256.9,211.5,256.7,210.9,256.4"
			/>
	</g>
</g>
</svg>
